<?xml version="1.0" encoding="utf-8"?>
<svg version="1.1" id="svg4152" xmlns="http://www.w3.org/2000/svg" xmlns:xlink="http://www.w3.org/1999/xlink" x="0px" y="0px" viewBox="0 0 64 64" style="enable-background:new 0 0 64 64;" xml:space="preserve">
<style type="text/css">
	.st0{fill:#FFFFFF;}
</style>
<g id="g4160" transform="matrix(1.25,0,0,-1.25,0,64)">
	<path id="rect825" class="st0" d="M17.6,36.8v-2.4h16v2.4H17.6z"/>
	<path id="rect834" class="st0" d="M16,33.6v-2.4h19.2v2.4H16z"/>
	<path id="rect836" class="st0" d="M14.4,30.4v-16h22.4v16H14.4z M25.6,28.79c3.52,0,6.39-2.86,6.39-6.39c0-3.52-2.86-6.39-6.39-6.39s-6.39,2.86-6.39,6.39C19.21,25.92,22.08,28.79,25.6,28.79z M25.6,28.03c-3.12,0-5.63-2.52-5.63-5.63c0-3.12,2.52-5.64,5.63-5.64s5.64,2.52,5.64,5.64C31.24,25.52,28.72,28.03,25.6,28.03z M28.79,25.17c0.31,0,0.57-0.25,0.57-0.56c0-0.16-0.06-0.31-0.17-0.41l-5.18-5.18l-1.99,2c-0.23,0.21-0.23,0.57-0.02,0.8c0.21,0.23,0.57,0.23,0.8,0.02c0.01-0.01,0.01-0.01,0.02-0.02l1.2-1.2L28.39,25C28.5,25.11,28.64,25.17,28.79,25.17z"/>
</g>
</svg>