<?xml version="1.0" encoding="utf-8"?>
<svg version="1.1" id="Layer_1" xmlns="http://www.w3.org/2000/svg" xmlns:xlink="http://www.w3.org/1999/xlink" x="0px" y="0px" viewBox="0 0 64 64" style="enable-background:new 0 0 64 64;" xml:space="preserve">
<style type="text/css">
	.st0{fill:none;stroke:#FFFFFF;stroke-width:2;stroke-miterlimit:5;}
	.st1{fill:#FFFFFF;}
</style>
<g>
	<path class="st0" d="M25,46c0,3.87,3.14,7,7,7s7-3.13,7-7s-3.13-7-7-7C28.14,39,25,42.13,25,46z"/>
	<path class="st1" d="M18,24c-4.42,0-8,3.59-8,8s3.58,8,8,8s8-3.58,8-8S22.42,24,18,24z"/>
	<path class="st0" d="M39,32c0,3.87,3.14,7,7,7s7-3.13,7-7s-3.13-7-7-7S39,28.13,39,32z"/>
	<path class="st0" d="M25,18c0,3.87,3.14,7,7,7c3.87,0,7-3.13,7-7s-3.13-7-7-7C28.14,11,25,14.13,25,18z"/>
</g>
</svg>