<?xml version="1.0" encoding="utf-8"?>
<svg version="1.1" id="svg4152" xmlns:cc="http://creativecommons.org/ns#" xmlns:dc="http://purl.org/dc/elements/1.1/" xmlns:rdf="http://www.w3.org/1999/02/22-rdf-syntax-ns#" xmlns:svg="http://www.w3.org/2000/svg" xmlns="http://www.w3.org/2000/svg" xmlns:xlink="http://www.w3.org/1999/xlink" x="0px" y="0px" viewBox="0 0 64 64" style="enable-background:new 0 0 64 64;" xml:space="preserve">
<style type="text/css">
	.st0{fill:#FFFFFF;}
</style>
<path class="st0" d="M32,16c-9.1,0-16,7.1-16,16s7.1,16,16,16s16-7.1,16-16S40.9,16,32,16z M28.1,35.56l-4.15,1.49c-0.73,0.26-0.85,0.64-0.25,0.83c0.6,0.2,1.68,0.14,2.41-0.12l1.99-0.72v2.09c-0.13,0.02-0.27,0.04-0.4,0.07c-1.99,0.33-4.11,0.19-6.21-0.5c-1.95-0.55-2.27-1.69-1.39-2.35c0.82-0.61,2.22-1.07,2.22-1.07l5.77-2.05V35.56z M32.91,26.61v14.92l-4.02-1.28V22.46c1.71,0.32,4.2,1.07,5.54,1.52c3.41,1.17,4.56,2.63,4.56,5.91c0,3.2-1.97,4.41-4.48,3.2v-5.96c0-0.7-0.13-1.34-0.79-1.53C33.22,25.45,32.91,25.91,32.91,26.61z M42.47,38.1l-8.8,3.16v-2.33l6.47-2.31c0.73-0.26,0.85-0.64,0.25-0.83c-0.6-0.2-1.68-0.14-2.41,0.12l-4.31,1.52v-2.42l0.25-0.08c0,0,1.25-0.44,3-0.64c1.75-0.19,3.9,0.03,5.58,0.67c1.9,0.6,2.11,1.48,1.63,2.09C43.65,37.67,42.47,38.1,42.47,38.1z"/>
</svg>