<?xml version="1.0" encoding="utf-8"?>
<svg version="1.1" id="svg4152" xmlns:svg="http://www.w3.org/2000/svg" xmlns:rdf="http://www.w3.org/1999/02/22-rdf-syntax-ns#" xmlns:cc="http://creativecommons.org/ns#" xmlns:dc="http://purl.org/dc/elements/1.1/" xmlns="http://www.w3.org/2000/svg" xmlns:xlink="http://www.w3.org/1999/xlink" x="0px" y="0px" viewBox="0 0 64 64" style="enable-background:new 0 0 64 64;" xml:space="preserve">
<style type="text/css">
	.st0{fill:none;stroke:#FFFFFF;stroke-width:2;stroke-miterlimit:5;}
	.st1{fill:#FFFFFF;}
</style>
<g>
	<path class="st0" d="M39,46c0,3.87-3.14,7-7,7s-7-3.13-7-7c0-3.87,3.13-7,7-7C35.86,39,39,42.13,39,46z"/>
	<path class="st1" d="M46,24c4.42,0,8,3.59,8,8s-3.58,8-8,8s-8-3.58-8-8S41.58,24,46,24z"/>
	<path class="st0" d="M25,32c0,3.87-3.14,7-7,7c-3.87,0-7-3.13-7-7s3.13-7,7-7C21.86,25,25,28.13,25,32z"/>
	<path class="st0" d="M39,18c0,3.87-3.14,7-7,7c-3.87,0-7-3.13-7-7s3.13-7,7-7C35.86,11,39,14.13,39,18z"/>
</g>
</svg>