<svg viewBox="0 0 64 64" xmlns="http://www.w3.org/2000/svg">
<style>
	.st0{fill:#fff}
</style>
<path class="st0" d="M32 10.8c-6.1 0-11 4.9-11 11v20.5c0 6.1 4.9 11 11 11s11-4.9 11-11V21.7c0-6-4.9-10.9-11-10.9zm8 24c-.1.2-.2.3-1 .7-2.7 1.3-3.1 1.4-3.3 1.5-.8.2-1.6-.2-1.7-.9-.1-.2-.1-.6 0-.9a270.12 270.12 0 0 0 1.7-6.4c0-.1-.1-.2-.2-.3-.2-.1-.3 0-.5.2-.1.1-1.4 1.4-2.8 3-1.4 1.5-2.8 2.9-2.9 3.1-.2.2-.4.5-.6.6-.5.5-.9 1-1.4 1.4l-.6.6c-.3.3-.8.6-1.2.7-.2.1-.6.1-.8 0-.4-.1-.8-.4-1-.8-.3-.6-.2-1.4.3-2l.5-.5c.2-.2.7-.6 1.1-.9 5.7-4.7 10.2-8.4 10.3-8.5.3-.2.4-.2.7-.2.2 0 .3 0 .5.1s.4.3.5.5c.1.2.2.5.1.8 0 .1-.5 1.9-1 4-1 4.3-1 4.1-.8 4.3.1.1.1.1.3.1.2 0 .3 0 1.2-.3 1.7-.5 1.9-.5 2.1-.5.4 0 .6.3.5.6z"/>
</svg>