<svg viewBox="0 0 64 64" xmlns="http://www.w3.org/2000/svg">
<style>
	.st0{fill:#fff}
</style>
<path class="st0" d="M32,16.1c-9.1,0-16,7.1-16,16c0,8.9,7.1,16,16,16s16-7.1,16-16C48,23.2,40.9,16.1,32,16.1z M42.5,27.6c0,0,0,0.1,0,0.1l-0.8,2.6c-0.1,0.2-0.4,0.4-0.6,0.3c-7.6-3.8-13.7-0.3-13.7-0.3c7.1-1,11.1,1.5,12.1,2.2c0.1,0.1,0.2,0.3,0.2,0.5l-0.9,2.9c-0.1,0.2-0.2,0.3-0.4,0.3c-1.2-0.1-2.4-0.1-3.6,0.1c-1.1,0.2-2.2,0.5-3.2,0.9c-1,0.4-2.1,0.9-2.7,1.8c-0.1,0.2-0.4,0.2-0.5,0L28,38.1c-0.2-0.6-0.7-1.5-0.9-2c-0.1-0.2,0-0.4,0.1-0.5c2.7-2.1,5.6-2.3,5.6-2.3c-2.9-0.8-7.5,0.7-8.8,1.2c-0.2,0.1-0.4,0-0.5-0.2l-2-4.6c0-0.1,0-0.1,0-0.2v0c0-0.1,0.1-0.3,0.2-0.3c4.4-3.1,8.5-4.1,11.9-4.1c4.5,0,7.7,1.6,8.7,2.2C42.4,27.3,42.5,27.5,42.5,27.6L42.5,27.6z"/>
</svg>