<svg viewBox="0 0 64 64" xmlns="http://www.w3.org/2000/svg">
<style>
	.st0{fill:#fff}
</style>
<g>
	<path class="st0" d="M32,16c-8.5,0-15.4,6.6-16,14.9c0,0,0,0,0,0c0,0,0,0,0,0l8.6,3.5c0.2-0.2,0.5-0.3,0.7-0.4c0.6-0.2,1.2-0.4,1.9-0.3l3.9-5.7c0,0,0-0.1,0-0.1c0-3.4,2.7-6.1,6.1-6.1c3.4,0,6.1,2.7,6.1,6.1c0,3.4-2.7,6.1-6.1,6.1c0,0-0.1,0-0.1,0l-5.6,4c0,0.6-0.1,1.2-0.3,1.8c-0.9,2.3-3.5,3.3-5.8,2.4c-1.4-0.6-2.3-1.8-2.6-3.1l-6.1-2.5C18.7,43.2,24.8,48,32,48c8.8,0,16-7.2,16-16C48,23.2,40.8,16,32,16z"/>
	<path class="st0" d="M26,40.5l-2-0.8c0.4,0.7,1,1.3,1.8,1.7c1.7,0.7,3.8-0.1,4.5-1.8c0.4-0.8,0.4-1.8,0-2.6c-0.3-0.8-1-1.5-1.8-1.9c-0.8-0.3-1.7-0.3-2.5,0l2,0.8c1.3,0.5,1.9,2,1.4,3.3C28.7,40.4,27.2,41,26,40.5z"/>
	<path class="st0" d="M41.3,28c0-2.2-1.8-4.1-4.1-4.1c-2.2,0-4.1,1.8-4.1,4.1c0,2.2,1.8,4.1,4.1,4.1C39.5,32,41.3,30.2,41.3,28zM34.2,28c0-1.7,1.4-3,3-3c1.7,0,3,1.4,3,3c0,1.7-1.4,3-3,3C35.6,31,34.2,29.7,34.2,28z"/>
</g>
</svg>