<?xml version="1.0" encoding="utf-8"?>
<svg version="1.1" id="svg4152" xmlns:cc="http://creativecommons.org/ns#" xmlns:dc="http://purl.org/dc/elements/1.1/" xmlns:rdf="http://www.w3.org/1999/02/22-rdf-syntax-ns#" xmlns:svg="http://www.w3.org/2000/svg" xmlns="http://www.w3.org/2000/svg" xmlns:xlink="http://www.w3.org/1999/xlink" x="0px" y="0px" viewBox="0 0 64 64" style="enable-background:new 0 0 64 64;" xml:space="preserve">
<style type="text/css">
	.st0{fill:#FFFFFF;}
</style>
<path class="st0" d="M32,16c-9.1,0-16,7.1-16,16s7.1,16,16,16s16-7.1,16-16S40.9,16,32,16z M32.03,19.5c4.01,0,6.45,1.76,6.45,1.76l-0.6-0.03c-1.2-0.06-2.94,0.42-4.81,1.33c-0.56,0.27-1.06,0.49-1.09,0.49c-0.04-0.01-0.5-0.23-1.02-0.5c-1.05-0.53-2.66-1.1-3.56-1.26c-0.31-0.05-1.19-0.07-1.19-0.07S28.02,19.5,32.03,19.5z M22.05,39.37c0.14,0.38,0.01,0.24-0.47-0.5c-1.17-1.79-1.76-3.55-2.04-6.1c-0.09-0.84-0.06-1.32,0.21-3.05c0.34-2.15,1.57-4.64,3.04-6.17c0.63-0.65,0.68-0.67,1.45-0.41c0.93,0.31,1.92,1,3.46,2.39l0.9,0.81l-0.49,0.6c-2.27,2.79-4.67,6.75-5.58,9.2C22.04,37.48,21.84,38.81,22.05,39.37z M40.48,41.12c-0.4,0.76-2.6,3.38-8.43,3.38c-5.83,0-8.57-3.31-8.57-4.06c0-1.51,1.66-4.15,4.5-7.16c1.61-1.71,3.86-3.71,4.1-3.66c0.47,0.11,4.25,3.79,5.66,5.52C39.98,37.87,41,40.12,40.48,41.12z M43.41,37.21c-0.28,0.61-0.98,1.81-1.28,2.19c-0.16,0.2-0.1-1.83-0.44-2.87c-0.74-2.26-3.21-6.45-5.48-9.3l-0.71-0.9l0.77-0.71c1.01-0.93,1.71-1.48,2.47-1.95c0.6-0.37,1.45-0.7,1.82-0.7c0.23,0,1.02,0.83,1.66,1.73c0.99,1.39,1.73,3.09,2.1,4.85c0.24,1.14,0.26,3.57,0.04,4.71C44.16,35.19,43.78,36.39,43.41,37.21z"/>
</svg>