<?xml version="1.0" encoding="utf-8"?>
<svg version="1.1" id="Layer_1" xmlns="http://www.w3.org/2000/svg" xmlns:xlink="http://www.w3.org/1999/xlink" x="0px" y="0px" viewBox="0 0 256 256" style="enable-background:new 0 0 256 256;" xml:space="preserve">
<style type="text/css">
	.st0{fill:#FFFFFF;}
</style>
<path class="st0" d="M128,43c-24.28,0-43.97,19.68-43.97,43.97v82.07c0,24.28,19.68,43.97,43.97,43.97s43.97-19.68,43.97-43.97V86.97C171.97,62.68,152.28,43,128,43z M160.17,139.2c-0.27,0.9-0.67,1.18-3.85,2.65c-10.84,5.03-12.41,5.73-13.33,5.96c-3.37,0.81-6.21-0.67-6.98-3.63c-0.21-0.79-0.23-2.42-0.05-3.41c0.24-1.29,2.66-10.36,5.67-21.25c0.78-2.8,1.15-4.35,1.1-4.55c-0.13-0.52-0.39-0.8-0.93-1.01c-0.83-0.32-1.26-0.18-2.13,0.69c-0.4,0.4-5.46,5.73-11.23,11.83c-5.78,6.11-11.06,11.68-11.74,12.4c-0.68,0.71-1.77,1.85-2.42,2.54c-1.86,1.95-3.64,3.81-5.44,5.67c-0.91,0.95-1.92,2-2.23,2.34c-1.19,1.3-3.15,2.54-4.62,2.92c-0.9,0.24-2.32,0.31-3.12,0.17c-1.64-0.29-3.31-1.51-4.1-3.01c-1.31-2.48-0.82-5.77,1.18-8.01c0.33-0.37,1.29-1.24,2.15-1.94c0.85-0.7,2.8-2.3,4.32-3.56c22.72-18.77,40.78-33.6,41.29-33.92c1.08-0.68,1.66-0.84,2.93-0.84c0.95,0,1.32,0.06,1.88,0.28c0.87,0.34,1.73,1.12,2.13,1.94c0.4,0.82,0.6,2.19,0.45,3.03c-0.06,0.36-1.8,7.56-3.86,16c-4.17,17.06-4.03,16.35-3.27,17.1c0.36,0.36,0.41,0.38,1.35,0.38c0.87,0,1.36-0.11,4.63-1.05c6.7-1.91,7.79-2.2,8.33-2.2C159.54,136.7,160.53,137.99,160.17,139.2z"/>
</svg>