<?xml version="1.0" encoding="utf-8"?>
<svg version="1.1" id="Layer_1" xmlns="http://www.w3.org/2000/svg" xmlns:xlink="http://www.w3.org/1999/xlink" x="0px" y="0px"
	 viewBox="0 0 64 64" style="enable-background:new 0 0 64 64;" xml:space="preserve">
<style type="text/css">
	.st0{fill:none;stroke:#FFFFFF;stroke-width:2;stroke-miterlimit:5;}
	.st1{fill:#FFFFFF;}
</style>
<g>
	<path class="st0" d="M46,39c3.87,0,7-3.14,7-7s-3.13-7-7-7c-3.87,0-7,3.13-7,7S42.13,39,46,39z"/>
	<path class="st1" d="M24,46c0,4.42,3.59,8,8,8s8-3.58,8-8s-3.58-8-8-8S24,41.58,24,46z"/>
	<path class="st0" d="M32,25c3.87,0,7-3.14,7-7s-3.13-7-7-7s-7,3.13-7,7S28.13,25,32,25z"/>
	<path class="st0" d="M18,39c3.87,0,7-3.14,7-7s-3.13-7-7-7s-7,3.13-7,7S14.13,39,18,39z"/>
</g>
</svg>