<?xml version="1.0" encoding="utf-8"?>
<svg version="1.1" id="svg4152" xmlns:cc="http://creativecommons.org/ns#" xmlns:dc="http://purl.org/dc/elements/1.1/" xmlns:rdf="http://www.w3.org/1999/02/22-rdf-syntax-ns#" xmlns:svg="http://www.w3.org/2000/svg" xmlns="http://www.w3.org/2000/svg" xmlns:xlink="http://www.w3.org/1999/xlink" x="0px" y="0px" viewBox="0 0 64 64" style="enable-background:new 0 0 64 64;" xml:space="preserve">
<style type="text/css">
	.st0{opacity:0.99;fill:none;stroke:#FFFFFF;stroke-width:2;stroke-miterlimit:5;}
	.st1{fill:#FFFFFF;}
</style>
<g>
	<path class="st0" d="M25.5,32c0-3.8,3.1-6.9,6.9-6.9s6.9,3.1,6.9,6.9s-3.1,6.9-6.9,6.9S25.5,35.9,25.5,32z"/>
	<path class="st1" d="M52,39.9c-2.1,0-4.2-0.9-5.7-2.4C44.8,36,44,34,44.1,32c0-4.4,3.5-7.9,7.9-7.9c4.4,0,7.9,3.5,7.9,7.9C59.9,36.4,56.4,39.9,52,39.9z"/>
	<path class="st0" d="M6.1,32c0-3.8,3.1-6.9,6.9-6.9s6.9,3.1,6.9,6.9s-3.1,6.9-6.9,6.9S6.1,35.9,6.1,32z"/>
</g>
</svg>