<?xml version="1.0" encoding="utf-8"?>
<svg version="1.1" id="svg4152" xmlns:cc="http://creativecommons.org/ns#" xmlns:dc="http://purl.org/dc/elements/1.1/" xmlns:rdf="http://www.w3.org/1999/02/22-rdf-syntax-ns#" xmlns:svg="http://www.w3.org/2000/svg" xmlns="http://www.w3.org/2000/svg" xmlns:xlink="http://www.w3.org/1999/xlink" x="0px" y="0px" viewBox="0 0 64 64" style="enable-background:new 0 0 64 64;" xml:space="preserve">
<style type="text/css">
	.st0{fill:#FFFFFF;}
</style>
<g>
	<path class="st0" d="M45.7,21.8c-0.5,0-1,0.2-1.4,0.6l-8.2,8.2c-0.8,0.8-0.8,2.1,0,2.8l8.2,8.2c0.4,0.4,0.9,0.6,1.4,0.6c0.7,0,1.3-0.3,1.7-1c3.4-5.7,3.4-12.8,0-18.5C47.1,22.1,46.4,21.8,45.7,21.8L45.7,21.8z"/>
	<path class="st0" d="M32,16c2.9,0,5.7,0.8,8.2,2.3L32,26.5l-8.2-8.2C26.3,16.8,29.1,16,32,16 M32,14c-3.2,0-6.4,0.8-9.2,2.5c-1.1,0.7-1.3,2.2-0.4,3.1l8.2,8.2c0.4,0.4,0.9,0.6,1.4,0.6c0.5,0,1-0.2,1.4-0.6l8.2-8.2c0.9-0.9,0.7-2.5-0.4-3.1C38.4,14.9,35.2,14,32,14L32,14z"/>
	<path class="st0" d="M18.3,23.8L18.3,23.8l8.2,8.2l-8.2,8.2C15.2,35.1,15.2,28.9,18.3,23.8L18.3,23.8 M18.3,21.8c-0.7,0-1.3,0.3-1.7,1c-3.4,5.7-3.4,12.8,0,18.5c0.4,0.6,1.1,1,1.7,1c0.5,0,1-0.2,1.4-0.6l8.2-8.2c0.8-0.8,0.8-2.1,0-2.8l-8.2-8.2C19.3,22,18.8,21.8,18.3,21.8L18.3,21.8z"/>
	<path class="st0" d="M32,37.5L32,37.5l8.2,8.2C37.7,47.2,34.9,48,32,48s-5.7-0.8-8.2-2.3L32,37.5L32,37.5 M32,35.5c-0.5,0-1,0.2-1.4,0.6l-8.2,8.2c-0.9,0.9-0.7,2.5,0.4,3.1c2.8,1.7,6,2.5,9.2,2.5s6.4-0.8,9.2-2.5c1.1-0.7,1.3-2.2,0.4-3.1l-8.2-8.2C33,35.7,32.5,35.5,32,35.5L32,35.5z"/>
</g>
</svg>