<svg viewBox="0 0 64 64" xmlns="http://www.w3.org/2000/svg">
<style>
	.st0{fill:none;stroke:#fff;stroke-width:2}
	.st1{fill:#fff;stroke:#fff;stroke-width:2}
</style>
<g>
	<path class="st1" d="M32.6,27.5l8.3-8.3c0.5-0.5,0.4-1.4-0.2-1.8C38.1,15.9,35.2,15,32,15c-3.3,0-6.4,0.9-9,2.6c-0.6,0.4-0.7,1.3-0.2,1.8l8.1,8.1C31.4,28,32.1,28,32.6,27.5z"/>
	<path class="st0" d="M36.5,33.1l8.1,8.1c0.5,0.5,1.4,0.4,1.8-0.2c1.6-2.6,2.6-5.7,2.6-9c0-3.2-0.9-6.1-2.4-8.6c-0.4-0.7-1.3-0.8-1.8-0.2l-8.3,8.3C36,31.9,36,32.6,36.5,33.1z"/>
	<path class="st0" d="M30.9,37l-7.8,7.8c-0.5,0.5-0.4,1.4,0.2,1.8c2.5,1.5,5.5,2.4,8.6,2.4c3,0,5.9-0.8,8.3-2.2c0.7-0.4,0.8-1.3,0.2-1.8l-8-8C32.1,36.5,31.4,36.5,30.9,37z"/>
	<path class="st0" d="M27,31.4l-8-8c-0.5-0.5-1.5-0.4-1.8,0.2C15.8,26.1,15,29,15,32c0,3.2,0.9,6.1,2.4,8.6c0.4,0.7,1.3,0.8,1.8,0.2l7.8-7.8C27.5,32.6,27.5,31.9,27,31.4z"/>
</g>
</svg>