<?xml version="1.0" encoding="utf-8"?>
<svg version="1.1" id="Layer_1" xmlns="http://www.w3.org/2000/svg" xmlns:xlink="http://www.w3.org/1999/xlink" x="0px" y="0px" viewBox="0 0 64 64" style="enable-background:new 0 0 64 64;" xml:space="preserve">
<style type="text/css">
	.st0{fill:#FFFFFF;}
	.st1{fill:none;stroke:#FFFFFF;stroke-width:2;stroke-miterlimit:5;}
</style>
<g>
	<g>
		<path class="st0" d="M15.9,42.57c-3.8,0-6.89-3.09-6.89-6.89c0-3.8,3.09-6.88,6.89-6.88s6.89,3.09,6.89,6.88
			C22.79,39.48,19.7,42.57,15.9,42.57z"/>
		<path class="st1" d="M27.14,53.05c3.26,0,5.89-2.64,5.89-5.9c0-3.25-2.64-5.89-5.89-5.89c-3.26,0-5.89,2.64-5.89,5.89
			C21.25,50.41,23.89,53.05,27.14,53.05z"/>
	</g>
	<g>
		<path class="st1" d="M49.14,30.35c2.67,0,4.85-2.18,4.85-4.85s-2.18-4.85-4.85-4.85s-4.85,2.18-4.85,4.85S46.46,30.35,49.14,30.35
			z"/>
		<path class="st1" d="M34.59,35.2c0,2.69,2.17,4.85,4.85,4.85s4.85-2.16,4.85-4.85s-2.16-4.85-4.85-4.85S34.59,32.51,34.59,35.2z"
			/>
		<path class="st1" d="M39.44,20.65c2.67,0,4.85-2.18,4.85-4.85s-2.17-4.85-4.85-4.85s-4.85,2.18-4.85,4.85S36.76,20.65,39.44,20.65
			z"/>
		<path class="st1" d="M29.74,30.35c2.67,0,4.85-2.18,4.85-4.85s-2.17-4.85-4.85-4.85s-4.85,2.18-4.85,4.85S27.06,30.35,29.74,30.35
			z"/>
	</g>
</g>
</svg>