<svg viewBox="0 0 64 64" xmlns="http://www.w3.org/2000/svg">
<style>
	.st0{fill:#fff;stroke:#fff;stroke-width:2}
	.st1{fill:none;stroke:#fff;stroke-width:2}
</style>
<g>
	<circle class="st0" cx="32" cy="15.2" r="7"/>
	<g>
		<path class="st1" d="M36.2,30.9h-8.3c-0.9,0-1.7-0.8-1.7-1.7V28c0-0.9,0.8-1.7,1.7-1.7h8.3c0.9,0,1.7,0.8,1.7,1.7v1.2C37.9,30.1,37.1,30.9,36.2,30.9z"/>
		<path class="st1" d="M36.2,39.3h-8.3c-0.9,0-1.7-0.8-1.7-1.7v-1.2c0-0.9,0.8-1.7,1.7-1.7h8.3c0.9,0,1.7,0.8,1.7,1.7v1.2C37.9,38.6,37.1,39.3,36.2,39.3z"/>
		<path class="st1" d="M36.2,47.8h-8.3c-0.9,0-1.7-0.8-1.7-1.7v-1.2c0-0.9,0.8-1.7,1.7-1.7h8.3c0.9,0,1.7,0.8,1.7,1.7v1.2C37.9,47,37.1,47.8,36.2,47.8z"/>
		<path class="st1" d="M36.2,56.2h-8.3c-0.9,0-1.7-0.8-1.7-1.7v-1.2c0-0.9,0.8-1.7,1.7-1.7h8.3c0.9,0,1.7,0.8,1.7,1.7v1.2C37.9,55.4,37.1,56.2,36.2,56.2z"/>
	</g>
</g>
</svg>