<?xml version="1.0" encoding="utf-8"?>
<svg version="1.1" id="Calque_1" xmlns="http://www.w3.org/2000/svg" xmlns:xlink="http://www.w3.org/1999/xlink" x="0px" y="0px" viewBox="0 0 64 64" style="enable-background:new 0 0 64 64;" xml:space="preserve">
<style type="text/css">
	.st0{fill:none;stroke:#FFFFFF;stroke-width:2;stroke-miterlimit:5;}
	.st1{fill:#FFFFFF;}
</style>
<g>
	<circle class="st0" cx="32" cy="15.2" r="7"/>
	<g>
		<path class="st1" d="M36.2,31.9h-8.3c-1.5,0-2.7-1.2-2.7-2.7V28c0-1.5,1.2-2.7,2.7-2.7h8.3c1.5,0,2.7,1.2,2.7,2.7v1.2C38.9,30.7,37.7,31.9,36.2,31.9z"/>
		<path class="st0" d="M36.2,39.3h-8.3c-0.9,0-1.7-0.8-1.7-1.7v-1.2c0-0.9,0.8-1.7,1.7-1.7h8.3c0.9,0,1.7,0.8,1.7,1.7v1.2C37.9,38.6,37.1,39.3,36.2,39.3z"/>
		<path class="st0" d="M36.2,47.8h-8.3c-0.9,0-1.7-0.8-1.7-1.7v-1.2c0-0.9,0.8-1.7,1.7-1.7h8.3c0.9,0,1.7,0.8,1.7,1.7v1.2C37.9,47,37.1,47.8,36.2,47.8z"/>
		<path class="st0" d="M36.2,56.2h-8.3c-0.9,0-1.7-0.8-1.7-1.7v-1.2c0-0.9,0.8-1.7,1.7-1.7h8.3c0.9,0,1.7,0.8,1.7,1.7v1.2C37.9,55.4,37.1,56.2,36.2,56.2z"/>
	</g>
</g>
</svg>