<svg viewBox="0 0 64 64" xmlns="http://www.w3.org/2000/svg">
<style>
	.st0{fill:none;stroke:#fff;stroke-width:2}
	.st1{fill:#fff}
</style>
<g>
	<circle class="st0" cx="32" cy="15.2" r="7"/>
	<g>
		<path class="st0" d="M36.2,30.9h-8.3c-0.9,0-1.7-0.8-1.7-1.7V28c0-0.9,0.8-1.7,1.7-1.7h8.3c0.9,0,1.7,0.8,1.7,1.7v1.2C37.9,30.2,37.1,30.9,36.2,30.9z"/>
		<path class="st0" d="M36.2,56.2h-8.3c-0.9,0-1.7-0.8-1.7-1.7v-1.2c0-0.9,0.8-1.7,1.7-1.7h8.3c0.9,0,1.7,0.8,1.7,1.7v1.2C37.9,55.4,37.1,56.2,36.2,56.2z"/>
		<path class="st1" d="M36.2,48.8h-8.3c-1.5,0-2.7-1.2-2.7-2.7v-1.2c0-1.5,1.2-2.7,2.7-2.7h8.3c1.5,0,2.7,1.2,2.7,2.7v1.2C38.9,47.6,37.7,48.8,36.2,48.8z"/>
		<path class="st0" d="M36.2,39.3h-8.3c-0.9,0-1.7-0.8-1.7-1.7v-1.2c0-0.9,0.8-1.7,1.7-1.7h8.3c0.9,0,1.7,0.8,1.7,1.7v1.2C37.9,38.5,37.1,39.3,36.2,39.3z"/>
	</g>
</g>
</svg>