<?xml version="1.0" encoding="utf-8"?>
<svg version="1.1" id="svg4152" xmlns="http://www.w3.org/2000/svg" xmlns:xlink="http://www.w3.org/1999/xlink" x="0px" y="0px" viewBox="0 0 256 256" style="enable-background:new 0 0 256 256;" xml:space="preserve">
<style type="text/css">
	.st0{fill:#FFFFFF;}
</style>
<path class="st0" d="M196,46.8H60c-11.2,0-20.4,9.2-20.4,20.4V138c0,11.2,9.2,20.4,20.4,20.4h51.2v30.8h-38c-5.6,0-10,2.8-10,10c0,7.6,4.4,10,10,10h109.6c5.6,0,10.4-3.6,10.4-10c0-6.4-4.4-10-10-10h-38.4v-30.8H196c11.2,0,20-9.2,20.4-20.4V67.2C216.4,56,207.2,46.8,196,46.8z M68,82c-5.5,0-10-4.5-10-10c0-5.5,4.5-10,10-10s10,4.5,10,10C78,77.5,73.5,82,68,82z M128,138.8c-19.9,0-36-16.1-36-36s16.1-36,36-36s36,16.1,36,36S147.9,138.8,128,138.8z"/>
</svg>