<?xml version="1.0" encoding="utf-8"?>
<svg version="1.1" id="Layer_1" xmlns="http://www.w3.org/2000/svg" xmlns:xlink="http://www.w3.org/1999/xlink" x="0px" y="0px" viewBox="0 0 64 64" style="enable-background:new 0 0 64 64;" xml:space="preserve">
<style type="text/css">
	.st0{fill:none;stroke:#FFFFFF;stroke-width:4.2;stroke-miterlimit:5;}
	.st1{fill:#FFFFFF;}
</style>
<path class="st0" d="M13.2,16.9c10.4-10.4,27.2-10.4,37.6,0"/>
<path class="st1" d="M55.6,22.4l-3.8-12.3l-8.2,8.2L55.6,22.4z"/>
<g>
	<path class="st1" d="M43.3,25.3c-6.4-6.4-16.3-6.3-22.6,0s-6.3,16.3,0,22.6s16.3,6.3,22.6,0S49.6,31.6,43.3,25.3z M22.5,46.1c-5.3-5.3-5.3-13.8,0-19.1s13.6-5.4,19.1,0c5.3,5.3,5.3,13.8,0,19.1S27.8,51.4,22.5,46.1z"/>
	<path class="st1" d="M40.1,28.5c-4.6-4.6-11.7-4.5-16.3,0c-4.5,4.5-4.5,11.7,0,16.3s11.7,4.5,16.3,0S44.7,33,40.1,28.5z M34.8,33.8c-1-1-1-2.5,0-3.5s2.5-1,3.5,0s1,2.5,0,3.5C37.4,34.8,35.8,34.8,34.8,33.8z"/>
</g>
</svg>