<?xml version="1.0" encoding="utf-8"?>
<svg version="1.1" id="Layer_1" xmlns="http://www.w3.org/2000/svg" xmlns:xlink="http://www.w3.org/1999/xlink" x="0px" y="0px" viewBox="0 0 64 64" style="enable-background:new 0 0 64 64;" xml:space="preserve">
<style type="text/css">
	.st0{fill:#FFFFFF;}
	.st1{fill:none;stroke:#FFFFFF;stroke-width:2;stroke-miterlimit:5;}
</style>
<path class="st0" d="M38,27.01H26v-11.3c0-0.95,0.77-1.71,1.71-1.71h8.58c0.95,0,1.71,0.77,1.71,1.71C38,15.71,38,27.01,38,27.01z"/>
<path class="st1" d="M36.5,14.01c0.83,0,1.5,0.67,1.5,1.5v10.5h10.5c0.83,0,1.5,0.67,1.5,1.5v9c0,0.83-0.67,1.5-1.5,1.5H38v10.5c0,0.83-0.67,1.5-1.5,1.5h-8.99c-0.83,0-1.5-0.67-1.5-1.5v-10.5h-10.5c-0.83,0-1.5-0.67-1.5-1.5v-9c0-0.83,0.67-1.5,1.5-1.5h10.5v-10.5c0-0.83,0.67-1.5,1.5-1.5C27.51,14.01,36.5,14.01,36.5,14.01z"/>
</svg>