<svg viewBox="0 0 64 64" xmlns="http://www.w3.org/2000/svg">
<style>
	.st0{fill:#fff}
	.st1{fill:none;stroke:#fff;stroke-width:2}
</style>
<path class="st0" d="M37,38V26h11.3c0.95,0,1.71,0.77,1.71,1.71v8.58c0,0.95-0.77,1.71-1.71,1.71H37z"/>
<path class="st1" d="M50,36.5c0,0.83-0.67,1.5-1.5,1.5H38v10.5c0,0.83-0.67,1.5-1.5,1.5h-9c-0.83,0-1.5-0.67-1.5-1.5V38H15.5c-0.83,0-1.5-0.67-1.5-1.5v-8.99c0-0.83,0.67-1.5,1.5-1.5H26v-10.5c0-0.83,0.67-1.5,1.5-1.5h9c0.83,0,1.5,0.67,1.5,1.5v10.5h10.5c0.83,0,1.5,0.67,1.5,1.5C50,27.51,50,36.5,50,36.5z"/>
</svg>