<?xml version="1.0" encoding="utf-8"?>
<!-- Generator: Adobe Illustrator 27.1.0, SVG Export Plug-In . SVG Version: 6.00 Build 0)  -->
<svg version="1.1" id="Layer_1" xmlns="http://www.w3.org/2000/svg" xmlns:xlink="http://www.w3.org/1999/xlink" x="0px" y="0px"
	 viewBox="0 0 64 64" style="enable-background:new 0 0 64 64;" xml:space="preserve">
<style type="text/css">
	.st0{fill:#FFFFFF;}
	.st1{fill:none;stroke:#FFFFFF;stroke-width:2;stroke-miterlimit:5;}
</style>
<path class="st0" d="M37,38V26h11.3c0.95,0,1.71,0.77,1.71,1.71v8.58c0,0.95-0.77,1.71-1.71,1.71H37z"/>
<path class="st1" d="M50,36.5c0,0.83-0.67,1.5-1.5,1.5H38v10.5c0,0.83-0.67,1.5-1.5,1.5h-9c-0.83,0-1.5-0.67-1.5-1.5V38H15.5
	c-0.83,0-1.5-0.67-1.5-1.5v-8.99c0-0.83,0.67-1.5,1.5-1.5H26v-10.5c0-0.83,0.67-1.5,1.5-1.5h9c0.83,0,1.5,0.67,1.5,1.5v10.5h10.5
	c0.83,0,1.5,0.67,1.5,1.5C50,27.51,50,36.5,50,36.5z"/>
</svg>
