<svg viewBox="0 0 64 64" xmlns="http://www.w3.org/2000/svg">
<style>
	.st0{fill:#fff}
	.st1{fill:none;stroke:#fff;stroke-width:2}
</style>
<path class="st0" d="M38,27.01H26v-11.3c0-0.95,0.77-1.71,1.71-1.71h8.58c0.95,0,1.71,0.77,1.71,1.71C38,15.71,38,27.01,38,27.01z"/>
<path class="st1" d="M36.5,14.01c0.83,0,1.5,0.67,1.5,1.5v10.5h10.5c0.83,0,1.5,0.67,1.5,1.5v9c0,0.83-0.67,1.5-1.5,1.5H38v10.5c0,0.83-0.67,1.5-1.5,1.5h-8.99c-0.83,0-1.5-0.67-1.5-1.5v-10.5h-10.5c-0.83,0-1.5-0.67-1.5-1.5v-9c0-0.83,0.67-1.5,1.5-1.5h10.5v-10.5c0-0.83,0.67-1.5,1.5-1.5C27.51,14.01,36.5,14.01,36.5,14.01z"/>
</svg>