<svg viewBox="0 0 64 64" xmlns="http://www.w3.org/2000/svg">
<style>
	.st0{fill:#fff}
	.st1{fill:none;stroke:#fff;stroke-width:2}
</style>
<path class="st0" d="M26.01,37h12v11.29c0,0.95-0.77,1.71-1.71,1.71h-8.58c-0.95,0-1.71-0.77-1.71-1.71V37z"/>
<path class="st1" d="M27.51,50c-0.83,0-1.5-0.67-1.5-1.5V38h-10.5c-0.83,0-1.5-0.67-1.5-1.5v-9c0-0.83,0.67-1.5,1.5-1.5h10.5V15.5c0-0.83,0.67-1.5,1.5-1.5h8.99c0.83,0,1.5,0.67,1.5,1.5V26h10.5c0.83,0,1.5,0.67,1.5,1.5v9c0,0.83-0.67,1.5-1.5,1.5H38.01v10.5c0,0.83-0.67,1.5-1.5,1.5H27.51z"/>
</svg>