<?xml version="1.0" encoding="utf-8"?>
<svg version="1.1" id="svg4152" xmlns:cc="http://creativecommons.org/ns#" xmlns:dc="http://purl.org/dc/elements/1.1/" xmlns:rdf="http://www.w3.org/1999/02/22-rdf-syntax-ns#" xmlns:svg="http://www.w3.org/2000/svg" xmlns="http://www.w3.org/2000/svg" xmlns:xlink="http://www.w3.org/1999/xlink" x="0px" y="0px" viewBox="0 0 64 64" style="enable-background:new 0 0 64 64;" xml:space="preserve">
<style type="text/css">
	.st0{fill:none;stroke:#FFFFFF;stroke-width:2;stroke-miterlimit:5;}
</style>
<path class="st0" d="M6.3,44.6c0,3.2,2.6,5.8,5.8,5.8s5.8-2.6,5.8-5.8s-2.6-5.8-5.8-5.8S6.3,41.4,6.3,44.6z"/>
<path class="st0" d="M17.9,32.9c0,3.2,2.6,5.8,5.8,5.8s5.8-2.6,5.8-5.8s-2.6-5.8-5.8-5.8C20.5,27.1,17.9,29.7,17.9,32.9z"/>
<path class="st0" d="M40.3,27.1c-3.2,0-5.8,2.6-5.8,5.8s2.6,5.8,5.8,5.8s5.8-2.6,5.8-5.8S43.6,27.1,40.3,27.1z"/>
<path class="st0" d="M52,38.8c-3.2,0-5.8,2.6-5.8,5.8s2.6,5.8,5.8,5.8s5.8-2.6,5.8-5.8S55.2,38.8,52,38.8z"/>
<path class="st0" d="M46.2,18.2c0,3.2,2.6,5.8,5.8,5.8s5.8-2.6,5.8-5.8L52,14.4L46.2,18.2z"/>
<circle class="st0" cx="12.1" cy="14.4" r="1.8"/>
<path class="st0" d="M8.8,16.5l-2.5,1.7c0,3.2,2.6,5.8,5.8,5.8c3.2,0,5.8-2.6,5.8-5.8l-2.5-1.7"/>
</svg>