<?xml version="1.0" encoding="utf-8"?>
<!-- Generator: Adobe Illustrator 24.2.0, SVG Export Plug-In . SVG Version: 6.00 Build 0)  -->
<svg version="1.1"
	 id="svg4152" xmlns:cc="http://creativecommons.org/ns#" xmlns:dc="http://purl.org/dc/elements/1.1/" xmlns:rdf="http://www.w3.org/1999/02/22-rdf-syntax-ns#" xmlns:svg="http://www.w3.org/2000/svg"
	 xmlns="http://www.w3.org/2000/svg" xmlns:xlink="http://www.w3.org/1999/xlink" x="0px" y="0px" viewBox="0 0 64 64"
	 style="enable-background:new 0 0 64 64;" xml:space="preserve">
<style type="text/css">
	.st0{fill:none;stroke:#EC008C;stroke-width:4;stroke-linecap:round;stroke-linejoin:round;stroke-miterlimit:10;}
	.st1{fill:#EC008C;}
	.st2{fill:#FFFFFF;}
</style>
<line class="st0" x1="15.1" y1="11.9" x2="15.1" y2="52.1"/>
<line class="st0" x1="48.9" y1="11.9" x2="48.9" y2="52.1"/>
<line class="st0" x1="32" y1="11.9" x2="32" y2="52.1"/>
<line class="st0" x1="15.1" y1="32" x2="48.9" y2="32"/>
<g>
	<circle class="st1" cx="32" cy="11.7" r="9"/>
	<path class="st2" d="M32,3.7c4.4,0,8,3.6,8,8s-3.6,8-8,8s-8-3.6-8-8S27.6,3.7,32,3.7 M32,1.7c-5.5,0-10,4.5-10,10s4.5,10,10,10
		s10-4.5,10-10S37.5,1.7,32,1.7L32,1.7z"/>
</g>
<g>
	<path class="st2" d="M36,16.2h-2l-3.7-5.6c-0.2-0.3-0.4-0.6-0.4-0.7l0,0c0,0.3,0,0.8,0,1.4v4.9H28V7.3h2.2l3.5,5.4
		c0.2,0.2,0.3,0.5,0.4,0.7l0,0c0-0.2,0-0.6,0-1.2V7.3H36V16.2z"/>
</g>
</svg>
