<?xml version="1.0" encoding="UTF-8"?>
<svg xmlns="http://www.w3.org/2000/svg" viewBox="0 0 64 64">
  <defs>
    <style>
      .b{fill:#fff}
      .c{fill:none;stroke:#fff;stroke-linecap:round;stroke-linejoin:round;stroke-width:3px}
    </style>
  </defs>
  <g>
    <line class="c" x1="17.38" y1="14.5" x2="17.38" y2="49.5"/>
    <line class="c" x1="46.62" y1="14.5" x2="46.62" y2="49.5"/>
    <g>
      <path class="b" d="M32,22c.51,0,1.01.05,1.5.12v-7.62c0-.83-.67-1.5-1.5-1.5s-1.5.67-1.5,1.5v7.62c.49-.07.99-.12,1.5-.12Z"/>
      <path class="b" d="M41.88,30.5c.07.49.12.99.12,1.5s-.05,1.01-.12,1.5h4.25v-3h-4.25Z"/>
      <path class="b" d="M22,32c0-.51.05-1.01.12-1.5h-4.25v3h4.25c-.07-.49-.12-.99-.12-1.5Z"/>
      <path class="b" d="M32,42c-.51,0-1.01-.05-1.5-.12v7.62c0,.83.67,1.5,1.5,1.5s1.5-.67,1.5-1.5v-7.62c-.49.07-.99.12-1.5.12Z"/>
    </g>
  </g>
  <circle class="b" cx="32" cy="32" r="7"/>
</svg>