<svg viewBox="0 0 64 64" xmlns="http://www.w3.org/2000/svg">
<style>
	.st0{fill:none;stroke:#fff;stroke-width:3;stroke-linecap:round}
	.st1{fill:#fff}
	.st2{fill:#f0f}
</style>
<line class="st0" x1="10.6" y1="15.6" x2="10.6" y2="50.5"/>
<line class="st0" x1="39.9" y1="15.6" x2="39.9" y2="50.5"/>
<line class="st0" x1="25.3" y1="15.6" x2="25.3" y2="50.5"/>
<line class="st0" x1="10.6" y1="33.1" x2="39.9" y2="33.1"/>
<g>
	<path class="st1" d="M25.3,23.4c-4.4,0-7.9-3.5-7.9-7.9s3.5-7.9,7.9-7.9c4.4,0,7.9,3.5,7.9,7.9S29.7,23.4,25.3,23.4z"/>
	<path class="st2" d="M25.3,8.6c3.8,0,6.9,3.1,6.9,6.9s-3.1,6.9-6.9,6.9s-6.9-3.1-6.9-6.9S21.5,8.6,25.3,8.6 M25.3,6.6
		c-4.9,0-8.9,4-8.9,8.9s4,8.9,8.9,8.9s8.9-4,8.9-8.9S30.2,6.6,25.3,6.6L25.3,6.6z"/>
</g>
<g>
	<path class="st2" d="M28.7,19.4H27l-3.2-4.9c-0.2-0.3-0.3-0.5-0.3-0.6l0,0c0,0.3,0,0.7,0,1.2v4.3h-1.6v-7.7h1.9l3,4.7
		c0.2,0.2,0.3,0.4,0.3,0.6l0,0c0-0.2,0-0.5,0-1v-4.3h1.6C28.7,11.7,28.7,19.4,28.7,19.4z"/>
</g>
<line class="st0" x1="39.9" y1="15.6" x2="39.9" y2="50.5"/>
<polyline class="st0" points="45.1,33.1 54.6,33.1 54.6,50.5 "/>
</svg>
