<svg xmlns="http://www.w3.org/2000/svg" viewBox="0 0 64 64">
  <path d="M10 14.5v35m29.3-35v35M10.5 32H54v17.5" style="fill:none;stroke:#fff;stroke-linecap:round;stroke-linejoin:round;stroke-width:3px"/>
  <path d="m24.8 26-1.6-.1v23.6a1.5 1.5 0 1 0 3 0V25.9l-1.4.1Zm0-20.5a9 9 0 1 0 0 18 9 9 0 0 0 0-18Zm0 13.6c-2.4 0-3-1.8-3-2.5l1.6-.2s.1 1.3 1.3 1.3c.5 0 1.3-.3 1.3-1.5s-.9-1.4-1.2-1.4a3 3 0 0 0-.8 0l.1-1.3s1.5 0 1.5-1.2c0-.5-.3-1-1-1-1 0-1.1 1.2-1.1 1.2l-1.6-.3c0-.7.5-2.3 2.8-2.3s2.6 1.7 2.6 2.3c0 .8-.4 1.4-1.3 1.9 1.2.2 1.8 1.2 1.8 2.1s-.8 3-3 3Z" style="fill:#fff"/>
</svg>
