<svg viewBox="0 0 64 64" xmlns="http://www.w3.org/2000/svg">
<style>
	.st0{fill:none;stroke:#fff;stroke-width:3;stroke-linecap:round}
	.st1{fill:#fff}
	.st2{fill:#f0f}
</style>
<line class="st0" x1="10.6" y1="15.6" x2="10.6" y2="50.5"/>
<line class="st0" x1="39.9" y1="15.6" x2="39.9" y2="50.5"/>
<line class="st0" x1="25.3" y1="15.6" x2="25.3" y2="50.5"/>
<line class="st0" x1="10.6" y1="33.1" x2="54.5" y2="33.1"/>
<line class="st0" x1="39.9" y1="15.6" x2="39.9" y2="50.5"/>
<line class="st0" x1="54.5" y1="15.6" x2="54.5" y2="50.5"/>
<line class="st0" x1="54.5" y1="15.6" x2="54.5" y2="50.5"/>
<g>
	<path class="st1" d="M32.6,41c-4.4,0-7.9-3.5-7.9-7.9c0-4.4,3.5-7.9,7.9-7.9s7.9,3.5,7.9,7.9C40.5,37.5,37,41,32.6,41z"/>
	<path class="st2" d="M32.6,26.2c3.8,0,6.9,3.1,6.9,6.9S36.4,40,32.6,40s-6.9-3.1-6.9-6.9S28.8,26.2,32.6,26.2 M32.6,24.2
		c-4.9,0-8.9,4-8.9,8.9s4,8.9,8.9,8.9s8.9-4,8.9-8.9S37.5,24.2,32.6,24.2L32.6,24.2z"/>
</g>
<g>
	<path class="st2" d="M36,37h-1.7l-3.2-4.9c-0.2-0.3-0.3-0.5-0.3-0.6l0,0c0,0.3,0,0.7,0,1.2V37h-1.6v-7.7h1.9l3,4.7
		c0.2,0.2,0.3,0.4,0.3,0.6l0,0c0-0.2,0-0.5,0-1v-4.3H36C36,29.3,36,37,36,37z"/>
</g>
</svg>
