<svg xmlns="http://www.w3.org/2000/svg" id="tm-2" viewBox="0 0 64 64">
  <defs>
    <style>.cls-1{fill:#fff}.cls-2{fill:none;stroke:#fff;stroke-linecap:round;stroke-linejoin:round;stroke-width:3px}
    </style>
  </defs>
  <path d="M39.3 14.5v35m-14.5-35v35" class="cls-2"/>
  <path d="m10 37.7 1.5.1V14.5a1.5 1.5 0 1 0-3 0v23.3l1.6-.1Z" class="cls-1"/>
  <path d="M10.5 32h43m.5-17.5v35" class="cls-2"/>
  <path d="M10 40.2a9 9 0 1 0 0 18 9 9 0 0 0 0-18Zm3 12v1.5H7c0-.6.3-1.2.6-1.7s1-1.3 2-2.2c.7-.7 1.7-1.5 1.7-2.5 0-.5-.1-1.2-1.1-1.2-1.3 0-1.3 1.4-1.3 1.4l-1.7-.2c0-1.4 1-2.6 3-2.6s2.9 1.3 2.9 2.5-.6 1.9-1 2.3c-.1.3-2.4 2.5-2.4 2.6H13Z" class="cls-1"/>
</svg>
