<svg xmlns="http://www.w3.org/2000/svg" id="tm-6" viewBox="0 0 64 64">
  <defs>
    <style>.cls-1{fill:#fff}.cls-2{fill:none;stroke:#fff;stroke-linecap:round;stroke-linejoin:round;stroke-width:3px}
    </style>
  </defs>
  <path d="M10 14.5v35m14.8-35v35" class="cls-2"/>
  <path d="m39.3 37.7 1.5.1V14.5a1.5 1.5 0 1 0-3 0v23.3l1.5-.1Z" class="cls-1"/>
  <path d="M10.5 32h43m.5-17.5v35" class="cls-2"/>
  <path d="M39.3 40.2a9 9 0 1 0 0 18 9 9 0 0 0 0-18Zm0 13.6c-1.3 0-3-.7-3-4.5s1.8-4.7 3.2-4.7 2.4 1 2.6 2.2l-1.7.2c0-.3-.2-1-1-1s-1.4.7-1.4 2.5c0 0 .6-.7 1.6-.7s2.7.8 2.7 3-1.6 3-3 3Z" class="cls-1"/>
  <path d="M39.4 49c-1 0-1.2.8-1.2 1.6s.3 1.8 1.2 1.8 1.2-.8 1.2-1.6-.4-1.7-1.2-1.7Z" class="cls-1"/>
</svg>
