<svg xmlns="http://www.w3.org/2000/svg" id="tm-1" viewBox="0 0 64 64">
  <defs>
    <style>.cls-1{fill:#fff}.cls-2{fill:none;stroke:#fff;stroke-linecap:round;stroke-linejoin:round;stroke-width:3px}
    </style>
  </defs>
  <path d="M39.3 14.5v35m-14.5-35v35M10.5 32h43" class="cls-2"/>
  <path d="m10 26-1.5-.1v23.6a1.5 1.5 0 1 0 3 0V25.9l-1.4.1Z" class="cls-1"/>
  <path d="M54 14.5v35" class="cls-2"/>
  <path d="M10 5.5a9 9 0 1 0 0 18 9 9 0 0 0 0-18Zm1.3 13.6H9.6v-6.5a6 6 0 0 1-2.3 1.3v-1.6c.5-.1 1-.4 1.5-.8s.9-1 1-1.5h1.5v9.1Z" class="cls-1"/>
</svg>
