<svg xmlns="http://www.w3.org/2000/svg" id="tm-5" viewBox="0 0 64 64">
  <defs>
    <style>.cls-1{fill:#fff}.cls-2{fill:none;stroke:#fff;stroke-linecap:round;stroke-linejoin:round;stroke-width:3px}
    </style>
  </defs>
  <path d="M10 14.5v35m14.8-35v35" class="cls-2"/>
  <path d="m39.3 26-1.5-.1v23.6a1.5 1.5 0 1 0 3 0V25.9l-1.5.1Z" class="cls-1"/>
  <path d="M10.5 32h43m.5-17.5v35" class="cls-2"/>
  <path d="M39.3 5.5a9 9 0 1 0 0 18 9 9 0 0 0 0-18ZM39.1 19c-2.8 0-3-2.4-3-2.4l1.7-.2s.2 1.3 1.3 1.3c.4 0 1.3-.4 1.3-1.8s-1-1.7-1.3-1.7c-.5 0-1 .2-1.4.7l-1.4-.2.9-4.7h4.6v1.6h-3.3l-.3 1.5 1.2-.3c1 0 2.8.8 2.8 3s-1.7 3.2-3 3.2Z" class="cls-1"/>
</svg>
