<?xml version="1.0" encoding="UTF-8"?>
<svg xmlns="http://www.w3.org/2000/svg" viewBox="0 0 64 64">
  <defs>
    <style>
      .b{fill:#fff}
      .c{fill:none;stroke:#fff;stroke-linecap:round;stroke-linejoin:round;stroke-width:3px}
    </style>
  </defs>
  <g>
    <line class="c" x1="10" y1="14.5" x2="10" y2="49.5"/>
    <line class="c" x1="39.25" y1="14.5" x2="39.25" y2="49.5"/>
    <g>
      <path class="b" d="M14.75,32c0-.51.05-1.01.12-1.5h-4.87v3h4.87c-.07-.49-.12-.99-.12-1.5Z"/>
      <path class="b" d="M54,30.5h-19.37c.07.49.12.99.12,1.5s-.05,1.01-.12,1.5h19.37v-3Z"/>
    </g>
    <g>
      <path class="b" d="M24.75,42c-.51,0-1.01-.05-1.5-.12v7.62c0,.83.67,1.5,1.5,1.5s1.5-.67,1.5-1.5v-7.62c-.49.07-.99.12-1.5.12Z"/>
      <path class="b" d="M24.75,22c.51,0,1.01.05,1.5.12v-7.62c0-.83-.67-1.5-1.5-1.5s-1.5.67-1.5,1.5v7.62c.49-.07.99-.12,1.5-.12Z"/>
    </g>
    <line class="c" x1="54" y1="14.5" x2="54" y2="49.5"/>
  </g>
  <circle class="b" cx="24.75" cy="32" r="7"/>
</svg>