<svg xmlns="http://www.w3.org/2000/svg" id="lt-r" viewBox="0 0 64 64">
  <defs>
    <style>
      .cls-1{fill:#fff}
    </style>
  </defs>
  <path d="M10 14.5v35m29.3-35v35m-14.5-35v35M10.5 32h28.8" style="fill:none;stroke:#fff;stroke-linecap:round;stroke-linejoin:round;stroke-width:3px"/>
  <path d="M52.5 37.7a11.6 11.6 0 0 1 3 0V32c0-.8-.7-1.5-1.5-1.5H39.2v3h13.3v4.2Zm3.4 9.5c0-1.3-1.7-1.1-2.3-1.1H52v2.3h1.4c.9 0 2.3.1 2.3-1.2Z" class="cls-1"/>
  <path d="M54 40a9 9 0 1 0 0 18.1 9 9 0 0 0 0-18Zm2.3 13.6-2-3c-.3-.4-.6-.8-1.8-.8h-.3v3.8h-1.9v-9h4.3c1.2 0 3.1.1 3.1 2.5s-2.4 2.5-2.4 2.5.6.3 1 .8c.5.4 2.2 3.2 2.2 3.2h-2.2Z" class="cls-1"/>
</svg>
