<svg xmlns="http://www.w3.org/2000/svg" id="tm-n" viewBox="0 0 64 64">
  <defs>
    <style>
      .cls-1{fill:#fff}
    </style>
  </defs>
  <path d="M54 30.5H43.4a12.3 12.3 0 0 1 0 3H54v-3ZM20.5 32l.1-1.5H10v3h10.6l-.1-1.5Zm20.3-7.4V14.5a1.5 1.5 0 1 0-3 0V22a18 18 0 0 1 3 2.6ZM26.3 22v-7.5a1.5 1.5 0 1 0-3 0v10c.8-1 1.8-1.8 3-2.4Zm11.5 20v7.5a1.5 1.5 0 1 0 3 0v-10c-.9 1-2 1.8-3 2.5Zm-14.5-2.5v10a1.5 1.5 0 1 0 3 0V42c-1.2-.7-2.2-1.5-3-2.5Z" class="cls-1"/>
  <path d="M10 14.5v35m44-35v35" style="fill:none;stroke:#fff;stroke-linecap:round;stroke-linejoin:round;stroke-width:3px"/>
  <path d="M32 23a9 9 0 1 0 0 18 9 9 0 0 0 0-18Zm3.6 13.5h-1.8L30 30.6v6h-1.7v-9.1h1.8l3.7 6v-6h1.7v9Z" class="cls-1"/>
</svg>
