<svg xmlns="http://www.w3.org/2000/svg" id="lt-4" viewBox="0 0 64 64">
  <defs>
    <style>
      .cls-1{fill:#fff}
    </style>
  </defs>
  <path d="M10 14.5v35m29.3-35v35M10.5 32H54v17.5" style="fill:none;stroke:#fff;stroke-linecap:round;stroke-linejoin:round;stroke-width:3px"/>
  <path d="m24.8 37.7 1.4.1V14.5a1.5 1.5 0 1 0-3 0v23.3l1.6-.1Zm0 2.5a9 9 0 1 0 0 18 9 9 0 0 0 0-18Zm2.7 11.7h-1.1v1.8h-1.7V52H21v-1.5l4-5.8h1.4v5.8h1V52Z" class="cls-1"/>
  <path d="M24.7 50.4v-3.1l-2.1 3.1h2.1z" class="cls-1"/>
</svg>
