<svg xmlns="http://www.w3.org/2000/svg" viewBox="0 0 64 64">
  <path d="M10 14.5v35m14.8-35v35M10.5 32H54v17.5" style="fill:none;stroke:#fff;stroke-linecap:round;stroke-linejoin:round;stroke-width:3px"/>
  <path d="m39.3 26-1.5-.1v23.6a1.5 1.5 0 1 0 3 0V25.9l-1.5.1Zm0-20.5a9 9 0 1 0 0 18 9 9 0 0 0 0-18ZM39.1 19c-2.8 0-3-2.4-3-2.4l1.7-.2s.2 1.3 1.3 1.3c.4 0 1.3-.4 1.3-1.8s-1-1.7-1.3-1.7c-.5 0-1 .2-1.4.7l-1.4-.2.9-4.7h4.6v1.6h-3.3l-.3 1.5 1.2-.3c1 0 2.8.8 2.8 3s-1.7 3.2-3 3.2Z" style="fill:#fff"/>
</svg>
