<svg xmlns="http://www.w3.org/2000/svg" id="tm-7" viewBox="0 0 64 64">
  <defs>
    <style>.cls-1{fill:#fff}.cls-2{fill:none;stroke:#fff;stroke-linecap:round;stroke-linejoin:round;stroke-width:3px}
    </style>
  </defs>
  <path d="M54 5.5a9 9 0 1 0 0 18 9 9 0 0 0 0-18Zm3 5.8s-3 3.2-3 7.7h-1.7a13 13 0 0 1 2.7-7.4h-4V10h6v1.3Z" class="cls-1"/>
  <path d="M10 14.5v35m29.3-35v35m-14.5-35v35M10.5 32h28.8" class="cls-2"/>
  <path d="M52.5 26.3a11.6 11.6 0 0 0 3 0V32l-3 1.5H39.2v-3h13.3v-4.2Z" class="cls-1"/>
  <path d="M54 32v17.5" class="cls-2"/>
</svg>
