<?xml version="1.0" encoding="utf-8"?>
<!-- Generator: Adobe Illustrator 24.1.1, SVG Export Plug-In . SVG Version: 6.00 Build 0)  -->
<svg version="1.1" id="Layer_2_1_" xmlns="http://www.w3.org/2000/svg" xmlns:xlink="http://www.w3.org/1999/xlink" x="0px" y="0px"
	 viewBox="0 0 64 64" style="enable-background:new 0 0 64 64;" xml:space="preserve">
<style type="text/css">
	.st0{fill:#FFFFFF;}
	.st1{fill:none;stroke:#FFFFFF;stroke-width:2;stroke-linecap:round;stroke-linejoin:round;stroke-miterlimit:22.926;}
</style>
<path class="st0" d="M31.5,34.7c0,0.2,0.2,0.3,0.5,0.3s0.5-0.1,0.5-0.3v-5.3c0-0.2-0.2-0.3-0.5-0.3s-0.5,0.1-0.5,0.3V34.7z"/>
<g>
	<path class="st1" d="M35.6,34.1c0,2.1-1.6,3.7-3.6,3.7s-3.6-1.7-3.6-3.7v-7.3c0-0.3,0.3-0.6,0.6-0.6h6c0.3,0,0.6,0.3,0.6,0.6V34.1z
		"/>
</g>
<g>
	<path class="st1" d="M13.3,34.1c0,2.1-1.6,3.7-3.6,3.7s-3.6-1.7-3.6-3.7v-7.3c0-0.3,0.3-0.6,0.6-0.6h6c0.3,0,0.6,0.3,0.6,0.6
		C13.3,26.8,13.3,34.1,13.3,34.1z"/>
</g>
<g>
	<path class="st1" d="M24.5,34.1c0,2.1-1.6,3.7-3.6,3.7s-3.6-1.7-3.6-3.7v-7.3c0-0.3,0.3-0.6,0.6-0.6h6c0.3,0,0.6,0.3,0.6,0.6V34.1z
		"/>
</g>
<g>
	<g>
		<path class="st0" d="M54.3,38.8c-2.5,0-4.6-2.1-4.6-4.7v-7.3c0-0.9,0.7-1.6,1.6-1.6h6c0.9,0,1.6,0.7,1.6,1.6v7.3
			C58.9,36.7,56.9,38.8,54.3,38.8z"/>
	</g>
</g>
<g>
	<path class="st1" d="M46.8,34.1c0,2.1-1.6,3.7-3.6,3.7s-3.6-1.7-3.6-3.7v-7.3c0-0.3,0.3-0.6,0.6-0.6h6c0.3,0,0.6,0.3,0.6,0.6V34.1z
		"/>
</g>
</svg>
