<svg viewBox="0 0 64 64" xmlns="http://www.w3.org/2000/svg">
<style>
	.st0{fill:none;stroke:#fff;stroke-width:2}
	.st2{fill:#fff}
</style>
<path class="st0" d="M13.3 34.1c0 2.1-1.6 3.7-3.6 3.7s-3.6-1.7-3.6-3.7v-7.3c0-.3.3-.6.6-.6h6c.3 0 .6.3.6.6z"/>
<path class="st0" d="M24.5 34.1c0 2.1-1.6 3.7-3.6 3.7s-3.6-1.7-3.6-3.7v-7.3c0-.3.3-.6.6-.6h6c.3 0 .6.3.6.6v7.3z"/>
<path class="st2" d="M29 25.2c-.5 0-.8.2-1.1.5-.3.2-.5.6-.5 1.1v7.3c0 2.5 2 4.7 4.6 4.7 2.5 0 4.6-2 4.6-4.7v-7.3c0-.5-.2-.9-.5-1.1-.3-.3-.6-.5-1.1-.5h-6zm3 3.9c.3 0 .5.1.5.3v5.3c0 .2-.2.3-.5.3s-.5-.1-.5-.3v-5.3c0-.2.2-.3.5-.3z"/>
<path class="st0" d="M46.8 34.1c0 2.1-1.6 3.7-3.6 3.7s-3.6-1.7-3.6-3.7v-7.3c0-.3.3-.6.6-.6h6c.3 0 .6.3.6.6v7.3z"/>
<path class="st0" d="M57.9 34.1c0 2.1-1.6 3.7-3.6 3.7s-3.6-1.7-3.6-3.7v-7.3c0-.3.3-.6.6-.6h6c.3 0 .6.3.6.6v7.3z"/>
</svg>