<svg viewBox="0 0 64 64" xmlns="http://www.w3.org/2000/svg">
<style>
	.st0{fill:none;stroke:#fff;stroke-width:2}
	.st1{fill:#fff;stroke:#fff;stroke-width:2}
	.st2{fill:#fff}
</style>
<path class="st1" d="M13.3 34.1c0 2.1-1.6 3.7-3.6 3.7s-3.6-1.7-3.6-3.7v-7.3c0-.3.3-.6.6-.6h6c.3 0 .6.3.6.6z"/>
<path class="st0" d="M24.5 34.1c0 2.1-1.6 3.7-3.6 3.7s-3.6-1.7-3.6-3.7v-7.3c0-.3.3-.6.6-.6h6c.3 0 .6.3.6.6v7.3z"/>
<g>
<path class="st0" d="M35.6 34.1c0 2.1-1.6 3.7-3.6 3.7s-3.6-1.7-3.6-3.7v-7.3c0-.3.3-.6.6-.6h6c.3 0 .6.3.6.6v7.3z"/>
<path class="st2" d="M31.5 34.7c0 .2.2.3.5.3s.5-.1.5-.3v-5.3c0-.2-.2-.3-.5-.3s-.5.1-.5.3v5.3z"/>
</g>
<path class="st0" d="M46.8 34.1c0 2.1-1.6 3.7-3.6 3.7s-3.6-1.7-3.6-3.7v-7.3c0-.3.3-.6.6-.6h6c.3 0 .6.3.6.6v7.3z"/>
<path class="st0" d="M57.9 34.1c0 2.1-1.6 3.7-3.6 3.7s-3.6-1.7-3.6-3.7v-7.3c0-.3.3-.6.6-.6h6c.3 0 .6.3.6.6v7.3z"/>
</svg>