<svg viewBox="0 0 64 64" xmlns="http://www.w3.org/2000/svg">
<style>
	.st0{fill:none;stroke:#fff;stroke-width:2}
	.st1{fill:#fff;stroke:#fff;stroke-width:2}
</style>
<path class="st1" d="M15.3 34.7c0 2.7-2 4.7-4.6 4.7a4.7 4.7 0 0 1-4.6-4.7v-9.3c0-.4.4-.8.8-.8h7.6c.4 0 .8.4.8.8v9.3z"/>
<path class="st0" d="M29.5 34.7c0 2.7-2 4.7-4.6 4.7a4.7 4.7 0 0 1-4.6-4.7v-9.3c0-.4.4-.8.8-.8h7.6c.4 0 .8.4.8.8v9.3z"/>
<path class="st0" d="M43.6 34.7c0 2.7-2 4.7-4.6 4.7a4.7 4.7 0 0 1-4.6-4.7v-9.3c0-.4.4-.8.8-.8h7.6c.4 0 .8.4.8.8z"/>
<path class="st0" d="M57.9 34.7c0 2.7-2 4.7-4.6 4.7a4.7 4.7 0 0 1-4.6-4.7v-9.3c0-.4.4-.8.8-.8h7.6c.4 0 .8.4.8.8z"/>
</svg>