<?xml version="1.0" encoding="utf-8"?>
<svg version="1.1" id="svg4152" xmlns="http://www.w3.org/2000/svg" xmlns:xlink="http://www.w3.org/1999/xlink" x="0px" y="0px" viewBox="0 0 64 64" style="enable-background:new 0 0 64 64;" xml:space="preserve">
<style type="text/css">
	.st0{fill:#FFFFFF;}
	.st1{fill:none;stroke:#FFFFFF;stroke-width:4;stroke-miterlimit:5;}
</style>
<g id="g4160" transform="matrix(1.25,0,0,-1.25,0,64)">
	<path class="st0" d="M15.9,29.7c-4.3-1.6-6.5-6.3-5-10.6l0.8-2.2c1-2.8,4.1-4.2,6.8-3.2l7.5,2.7c0.2,0.1,0.4,0.3,0.4,0.5l0.1,0.6c0,0.2,0.2,0.4,0.4,0.5l2.7,1c0.2,0.1,0.4,0,0.6-0.1l0.4-0.4c0.2-0.2,0.4-0.2,0.6-0.1l7.5,2.7c2.8,1,4.2,4.1,3.2,6.8L41,30c-1.6,4.3-6.3,6.5-10.6,5L15.9,29.7z M33.5,33.1c0.8,0.3,1.7-0.1,2-1c0.3-0.8-0.1-1.7-1-2.1c-0.8-0.3-1.7,0.1-2.1,1C32.2,31.9,32.6,32.8,33.5,33.1z M14,25.6l1.7,0.6c0.2,0.1,0.3,0,0.4-0.2l0.7-2l2,0.7c0.2,0.1,0.3,0,0.4-0.2l0.6-1.7c0.1-0.2,0-0.3-0.2-0.4l-2-0.7l0.7-2c0.1-0.2,0-0.3-0.2-0.4l-1.7-0.6c-0.2-0.1-0.3,0-0.4,0.2l-0.7,2l-2-0.7c-0.2-0.1-0.3,0-0.4,0.2l-0.6,1.7c-0.1,0.2,0,0.3,0.2,0.4l2,0.7l-0.7,2C13.7,25.4,13.8,25.6,14,25.6z M31.8,29.6c0.8,0.3,1.7-0.1,2.1-1c0.3-0.8-0.1-1.7-1-2.1c-0.8-0.3-1.7,0.1-2.1,1C30.5,28.3,31,29.3,31.8,29.6z M37,31.5c0.8,0.3,1.7-0.1,2.1-1c0.3-0.8-0.1-1.7-1-2.1c-0.8-0.3-1.7,0.1-2.1,1C35.8,30.3,36.2,31.2,37,31.5z M22.6,24.5l1.5,0.5c0.4,0.2,0.9-0.1,1-0.5c0.2-0.4-0.1-0.9-0.5-1L23.1,23c-0.4-0.2-0.9,0.1-1,0.5C21.9,23.9,22.1,24.3,22.6,24.5z M27.1,26.1l1.5,0.5c0.4,0.2,0.9-0.1,1-0.5c0.2-0.4-0.1-0.9-0.5-1l-1.5-0.5c-0.4-0.2-0.9,0.1-1,0.5C26.4,25.5,26.7,26,27.1,26.1z M35.4,27.9c0.8,0.3,1.7-0.1,2-1c0.3-0.8-0.1-1.7-1-2.1s-1.7,0.1-2.1,1C34.1,26.7,34.5,27.6,35.4,27.9z M22.9,21.2c1.2,0.5,2.6-0.2,3.1-1.4c0.5-1.2-0.2-2.6-1.4-3.1c-1.2-0.5-2.6,0.2-3.1,1.4C21,19.4,21.7,20.8,22.9,21.2z M30.4,24c1.2,0.5,2.6-0.2,3.1-1.4c0.5-1.2-0.2-2.6-1.4-3.1c-1.2-0.5-2.6,0.2-3.1,1.4C28.5,22.1,29.2,23.5,30.4,24z"/>
	<path class="st0" d="M17.2,23c0.2-0.6-0.1-1.3-0.7-1.5c-0.6-0.2-1.3,0.1-1.5,0.7c-0.2,0.6,0.1,1.3,0.7,1.5C16.2,23.9,16.9,23.6,17.2,23"/>
	<path class="st0" d="M15.3,30.4l-0.1,0.3c-0.1,0.2-0.2,0.2-0.4,0.2c-2-0.9-3.7-2.3-4.7-4.1c-0.2-0.3-0.2-0.7-0.1-1l0.1-0.3C11.1,27.7,12.9,29.5,15.3,30.4"/>
	<path class="st0" d="M19.1,31.7l-3-1.1L16,30.9c-0.1,0.2,0,0.3,0.1,0.4l2.5,0.9c0.1,0.1,0.3,0,0.4-0.2L19.1,31.7z"/>
	<path class="st0" d="M30.7,23.2c-0.8-0.3-1.3-1.2-1-2.1c0.3-0.8,1.2-1.3,2.1-1c0.8,0.3,1.3,1.2,1,2.1C32.4,23.1,31.5,23.5,30.7,23.2z"/>
	<path class="st0" d="M23.2,20.5c-0.8-0.3-1.3-1.2-1-2.1s1.2-1.3,2.1-1s1.3,1.2,1,2.1C24.9,20.3,24,20.8,23.2,20.5z"/>
	<path class="st0" d="M30.3,35.8l-0.1,0.3c-0.1,0.2,0,0.3,0.2,0.4c2.1,0.6,4.3,0.6,6.2-0.1c0.3-0.1,0.6-0.4,0.7-0.7l0.1-0.3C35.3,36.5,32.8,36.7,30.3,35.8"/>
	<path class="st0" d="M26.6,34.5l3,1.1l-0.1,0.3c-0.1,0.2-0.2,0.2-0.4,0.2l-2.5-0.9c-0.1-0.1-0.2-0.2-0.1-0.4L26.6,34.5z"/>
</g>
<g>
	<path class="st1" d="M13.2,17C23.6,6.6,40.4,6.6,50.8,17"/>
	<path class="st0" d="M20.4,18.4l-8.2-8.2L8.4,22.5L20.4,18.4z"/>
</g>
</svg>