<svg viewBox="0 0 64 64" xmlns="http://www.w3.org/2000/svg">
<style>
	.st0{fill:#fff}
	.st1{fill:#fff;stroke:#fff;stroke-width:1;stroke-linejoin:round}
</style>
<polygon class="st1" points="31.9,5.1 37.2,10.4 26.8,10.4"/>
<polygon class="st0" points="33.9,9.4 37.3,18.3 26.7,18.4 30.4,9.4"/>
<g>
	<path class="st0" d="M27,38.8c-1.7,0-3-1-3-2.3s1.3-2.3,3-2.3c1.7,0,3,1,3,2.3S28.7,38.8,27,38.8 M37,38.8c-1.7,0-3-1-3-2.3s1.3-2.3,3-2.3c1.7,0,3,1,3,2.3S38.7,38.8,37,38.8 M44.5,35c-1.1,0-2-0.6-2-1.4c0-0.8,0.9-1.4,2-1.4c1.1,0,2,0.6,2,1.4C46.5,34.4,45.6,35,44.5,35 M28,32.6c-0.5,0-1-0.3-1-0.7c0-0.4,0.4-0.7,1-0.7h2c0.6,0,1,0.3,1,0.7c0,0.4-0.4,0.7-1,0.7H28 M34,32.6c-0.6,0-1-0.3-1-0.7c0-0.4,0.4-0.7,1-0.7h2c0.5,0,1,0.3,1,0.7c0,0.4-0.5,0.7-1,0.7H34 M41,32.6c-1.1,0-2-0.6-2-1.4c0-0.8,0.9-1.4,2-1.4c1.1,0,2,0.6,2,1.4C43,32,42.1,32.6,41,32.6 M48,32.6c-1.1,0-2-0.6-2-1.4c0-0.8,0.9-1.4,2-1.4c1.1,0,2,0.6,2,1.4C50,32,49.1,32.6,48,32.6 M15.4,31.8c-0.2,0-0.4-0.1-0.4-0.3v-1.7c0-0.2,0.2-0.3,0.4-0.3H18v-1.8c0-0.2,0.2-0.3,0.4-0.3h2.3c0.2,0,0.4,0.1,0.4,0.3v1.8h2.6c0.2,0,0.4,0.1,0.4,0.3v1.7c0,0.2-0.2,0.3-0.4,0.3H21v2c0,0.2-0.2,0.3-0.4,0.3h-2.3c-0.2,0-0.4-0.1-0.4-0.3v-2H15.4 M44.5,30.2c-1.1,0-2-0.6-2-1.4c0-0.8,0.9-1.4,2-1.4c1.1,0,2,0.6,2,1.4C46.5,29.5,45.6,30.2,44.5,30.2 M41.6,25H22.4C16.6,25,12,28.6,12,33.1v2.3c0,2.9,3,5.2,6.7,5.2h9.9c0.3,0,0.5-0.1,0.7-0.3l0.3-0.5c0.1-0.2,0.4-0.3,0.7-0.3h3.5c0.3,0,0.5,0.1,0.7,0.3l0.3,0.5c0.1,0.2,0.4,0.3,0.7,0.3h9.9c3.7,0,6.7-2.3,6.7-5.2v-2.3C52,28.6,47.4,25,41.6,25"/>
	<path class="st0" d="M19.5,29.9c-0.8,0-1.5,0.4-1.5,0.9c0,0.5,0.7,0.9,1.5,0.9c0.8,0,1.5-0.4,1.5-0.9C21,30.3,20.3,29.9,19.5,29.9"/>
	<path class="st0" d="M37,33.8c-1.1,0-2,0.7-2,1.6c0,0.9,0.9,1.6,2,1.6c1.1,0,2-0.7,2-1.6C39,34.5,38.1,33.8,37,33.8"/>
	<path class="st0" d="M27,33.8c-1.1,0-2,0.7-2,1.6c0,0.9,0.9,1.6,2,1.6c1.1,0,2-0.7,2-1.6C29,34.5,28.1,33.8,27,33.8"/>
</g>
<path class="st0" d="M51.8,39.1c0,0-2.6,2.5-4.9,2.5c-2.3,0-11.9,0-11.9,0l-1.2-1.2h-3.5l-1.4,1.4c0,0-8.1,0-11.3,0S12,39.1,12,39.1s0.7,4.3,5.6,4.3s11.1,0,11.1,0l1.5-1.5h3.3l1.3,1.3h11.8C46.7,43.3,51.8,41.8,51.8,39.1z"/>
</svg>