<svg viewBox="0 0 64 64" xmlns="http://www.w3.org/2000/svg">
<style>
	.st0{fill:#fff}
	.st1{fill:none;stroke:#fff;stroke-width:4;stroke-miterlimit:5;}
	.st2{fill:#fff;stroke:#fff;stroke-width:1;stroke-linejoin:round}
</style>
<g transform="matrix(1.25,0,0,-1.25,0,64)">
	<path class="st0" d="M22.1,35.6c-4.2,1.9-9.1,0.1-11-4l-1-2.1c-1.3-2.7-0.1-5.9,2.5-7.1l7.2-3.4c0.2-0.1,0.5-0.1,0.6,0.1l0.5,0.4c0.1,0.1,0.4,0.1,0.6,0.1l2.6-1.2c0.2-0.1,0.3-0.3,0.4-0.5v-0.6c0-0.3,0.1-0.4,0.4-0.5l7.2-3.4c2.7-1.3,5.9-0.1,7.1,2.5l0.8,2.1c1.9,4.2,0.1,9.1-4,11L22.1,35.6z M36.9,25.5c0.8-0.4,1.1-1.3,0.7-2.1c-0.4-0.8-1.3-1.1-2.2-0.8c-0.8,0.4-1.1,1.3-0.8,2.2C35.2,25.6,36.1,26,36.9,25.5z M17.9,34l1.6-0.8c0.2-0.1,0.2-0.2,0.1-0.4l-0.9-1.9l1.9-0.9c0.2-0.1,0.2-0.2,0.1-0.4L20,27.9c-0.1-0.2-0.2-0.2-0.4-0.1l-1.9,0.9l-0.9-1.9c-0.1-0.2-0.2-0.2-0.4-0.1l-1.6,0.8c-0.2,0.1-0.2,0.2-0.1,0.4l0.9,1.9l-1.9,0.9c-0.2,0.1-0.2,0.2-0.1,0.4l0.8,1.6c0.1,0.2,0.2,0.2,0.4,0.1l1.9-0.9l0.9,1.9C17.5,34.1,17.7,34.2,17.9,34z M33.3,24.3c0.8-0.4,1.1-1.3,0.8-2.2c-0.4-0.8-1.3-1.1-2.2-0.8c-0.8,0.4-1.1,1.3-0.8,2.2C31.4,24.3,32.5,24.6,33.3,24.3z M38.3,21.9c0.8-0.4,1.1-1.3,0.8-2.2c-0.4-0.8-1.3-1.1-2.2-0.8c-0.8,0.4-1.1,1.3-0.8,2.2C36.6,21.9,37.5,22.3,38.3,21.9z M23.2,27.2l1.4-0.7c0.4-0.1,0.6-0.7,0.4-1.1c-0.1-0.4-0.7-0.6-1.1-0.4l-1.4,0.7c-0.4,0.1-0.6,0.7-0.4,1.1C22.2,27.2,22.7,27.4,23.2,27.2z M27.5,25.1l1.4-0.7c0.4-0.1,0.6-0.7,0.4-1.1c-0.1-0.4-0.7-0.6-1.1-0.4l-1.4,0.7c-0.4,0.1-0.6,0.7-0.4,1.1C26.5,25.2,27.1,25.3,27.5,25.1z M34.6,20.5c0.8-0.4,1.1-1.3,0.7-2.1c-0.4-0.8-1.3-1.1-2.2-0.8c-0.9,0.4-1.1,1.3-0.8,2.2C32.8,20.6,33.8,20.9,34.6,20.5z M21,24.6c1.2-0.5,1.7-2,1.2-3.2s-2-1.7-3.2-1.2c-1.2,0.5-1.7,2-1.2,3.2C18.4,24.7,19.9,25.2,21,24.6z M28.3,21.3c1.2-0.5,1.7-2,1.2-3.2s-2-1.7-3.2-1.2c-1.2,0.5-1.7,2-1.2,3.2C25.6,21.3,27.1,21.8,28.3,21.3z"/>
	<path class="st0" d="M18.3,29.9c-0.3-0.6-1-0.8-1.6-0.6c-0.6,0.3-0.8,1-0.6,1.6c0.3,0.6,1,0.8,1.6,0.6C18.2,31.3,18.5,30.5,18.3,29.9"/>
	<path class="st0" d="M22.2,36.5l0.1,0.3c0.1,0.2,0,0.3-0.1,0.4c-2.1,0.8-4.2,1-6.2,0.4c-0.4-0.1-0.6-0.4-0.8-0.6L15,36.7C17.3,37.5,19.8,37.5,22.2,36.5"/>
	<path class="st0" d="M25.8,34.7l-2.9,1.3l0.1,0.3c0.1,0.2,0.2,0.2,0.4,0.2l2.4-1.1c0.1,0,0.2-0.2,0.1-0.4L25.8,34.7z"/>
	<path class="st0" d="M28,20.5c-0.8,0.4-1.8,0.1-2.2-0.8c-0.4-0.8-0.1-1.8,0.8-2.2c0.8-0.4,1.8-0.1,2.2,0.8C29.1,19.2,28.7,20.2,28,20.5z"/>
	<path class="st0" d="M20.7,23.9C20,24.3,19,24,18.6,23.1c-0.4-0.8-0.1-1.8,0.8-2.2s1.8-0.1,2.2,0.8C21.8,22.6,21.5,23.5,20.7,23.9z"/>
	<path class="st0" d="M36.6,29.7l0.1,0.3c0.1,0.2,0.2,0.2,0.4,0.1c1.9-1.1,3.5-2.6,4.3-4.5c0.1-0.3,0.1-0.7,0-1l-0.1-0.3C40.6,26.7,39,28.6,36.6,29.7"/>
	<path class="st0" d="M33.1,31.4l2.9-1.3l0.1,0.3c0.1,0.2,0,0.3-0.1,0.4l-2.4,1.1c-0.1,0-0.3,0-0.4-0.2L33.1,31.4z"/>
</g>
<g>
	<path class="st1" d="M13.2,17C23.6,6.6,40.4,6.6,50.8,17"/>
	<path class="st2" d="M55.6,22.5l-3.8-12.3l-8.2,8.2L55.6,22.5z"/>
</g>
</svg>