<?xml version="1.0" encoding="utf-8"?>
<!-- Generator: Adobe Illustrator 24.1.2, SVG Export Plug-In . SVG Version: 6.00 Build 0)  -->
<svg version="1.1"
	 id="Calque_1" inkscape:export-filename="C:\Users\lollo78\Desktop\Coleco - ColecoVision.png" inkscape:export-xdpi="360" inkscape:export-ydpi="360" inkscape:version="0.91 r13725" sodipodi:docname="Coleco - ColecoVision.svg" xmlns:cc="http://creativecommons.org/ns#" xmlns:dc="http://purl.org/dc/elements/1.1/" xmlns:inkscape="http://www.inkscape.org/namespaces/inkscape" xmlns:rdf="http://www.w3.org/1999/02/22-rdf-syntax-ns#" xmlns:sodipodi="http://sodipodi.sourceforge.net/DTD/sodipodi-0.dtd" xmlns:svg="http://www.w3.org/2000/svg"
	 xmlns="http://www.w3.org/2000/svg" xmlns:xlink="http://www.w3.org/1999/xlink" x="0px" y="0px" viewBox="0 0 64 64"
	 style="enable-background:new 0 0 64 64;" xml:space="preserve">
<style type="text/css">
	.st0{fill:none;stroke:#FFFFFF;stroke-width:2;stroke-miterlimit:10;}
	.st1{fill:#FFFFFF;}
</style>
<sodipodi:namedview  bordercolor="#666666" borderopacity="1" gridtolerance="10" guidetolerance="10" id="namedview4" inkscape:current-layer="Calque_1" inkscape:cx="23.937193" inkscape:cy="31.783966" inkscape:guide-bbox="true" inkscape:pageopacity="0" inkscape:pageshadow="2" inkscape:window-height="1026" inkscape:window-maximized="1" inkscape:window-width="1615" inkscape:window-x="1985" inkscape:window-y="24" inkscape:zoom="5.6568541" objecttolerance="10" pagecolor="#808080" showgrid="false" showguides="true">
	</sodipodi:namedview>
<g id="g3427">
</g>
<sodipodi:namedview  bordercolor="#666666" borderopacity="1" gridtolerance="10" guidetolerance="10" id="namedview4" inkscape:current-layer="Calque_1" inkscape:cx="23.937193" inkscape:cy="31.783966" inkscape:guide-bbox="true" inkscape:pageopacity="0" inkscape:pageshadow="2" inkscape:window-height="1026" inkscape:window-maximized="1" inkscape:window-width="1615" inkscape:window-x="1985" inkscape:window-y="24" inkscape:zoom="5.6568541" objecttolerance="10" pagecolor="#808080" showgrid="false" showguides="true">
	</sodipodi:namedview>
<g id="g3427_1_">
</g>
<sodipodi:namedview  bordercolor="#666666" borderopacity="1" gridtolerance="10" guidetolerance="10" id="namedview4" inkscape:current-layer="Calque_1" inkscape:cx="23.937193" inkscape:cy="31.783966" inkscape:guide-bbox="true" inkscape:pageopacity="0" inkscape:pageshadow="2" inkscape:window-height="1026" inkscape:window-maximized="1" inkscape:window-width="1615" inkscape:window-x="1985" inkscape:window-y="24" inkscape:zoom="5.6568541" objecttolerance="10" pagecolor="#808080" showgrid="false" showguides="true">
	</sodipodi:namedview>
<g id="g3427_2_">
</g>
<g>
	<path class="st0" d="M19.4,17.8h-7.1c-1,0-1.8-0.8-1.8-1.8v-3.8c0-1,0.8-1.8,1.8-1.8h7.1c1,0,1.8,0.8,1.8,1.8V16
		C21.2,17,20.4,17.8,19.4,17.8z"/>
	<path class="st0" d="M19.4,29.8h-7.1c-1,0-1.8-0.8-1.8-1.8v-3.8c0-1,0.8-1.8,1.8-1.8h7.1c1,0,1.8,0.8,1.8,1.8V28
		C21.2,29,20.4,29.8,19.4,29.8z"/>
	<path class="st0" d="M19.4,41.6h-7.1c-1,0-1.8-0.8-1.8-1.8V36c0-1,0.8-1.8,1.8-1.8h7.1c1,0,1.8,0.8,1.8,1.8v3.8
		C21.2,40.8,20.4,41.6,19.4,41.6z"/>
	<g>
		<path class="st1" d="M19.4,54.5h-7.1c-1.5,0-2.8-1.3-2.8-2.8v-3.8c0-1.5,1.3-2.8,2.8-2.8h7.1c1.5,0,2.8,1.3,2.8,2.8v3.8
			C22.2,53.2,20.9,54.5,19.4,54.5z"/>
	</g>
	<path class="st0" d="M35.5,17.8h-7.1c-1,0-1.8-0.8-1.8-1.8v-3.8c0-1,0.8-1.8,1.8-1.8h7.1c1,0,1.8,0.8,1.8,1.8V16
		C37.4,17,36.6,17.8,35.5,17.8z"/>
	<path class="st0" d="M35.5,29.8h-7.1c-1,0-1.8-0.8-1.8-1.8v-3.8c0-1,0.8-1.8,1.8-1.8h7.1c1,0,1.8,0.8,1.8,1.8V28
		C37.4,29,36.6,29.8,35.5,29.8z"/>
	<path class="st0" d="M35.5,41.6h-7.1c-1,0-1.8-0.8-1.8-1.8V36c0-1,0.8-1.8,1.8-1.8h7.1c1,0,1.8,0.8,1.8,1.8v3.8
		C37.4,40.8,36.6,41.6,35.5,41.6z"/>
	<path class="st0" d="M35.5,53.5h-7.1c-1,0-1.8-0.8-1.8-1.8v-3.8c0-1,0.8-1.8,1.8-1.8h7.1c1,0,1.8,0.8,1.8,1.8v3.8
		C37.4,52.7,36.6,53.5,35.5,53.5z"/>
	<path class="st0" d="M51.7,17.8h-7.1c-1,0-1.8-0.8-1.8-1.8v-3.8c0-1,0.8-1.8,1.8-1.8h7.1c1,0,1.8,0.8,1.8,1.8V16
		C53.5,17,52.7,17.8,51.7,17.8z"/>
	<path class="st0" d="M51.7,29.8h-7.1c-1,0-1.8-0.8-1.8-1.8v-3.8c0-1,0.8-1.8,1.8-1.8h7.1c1,0,1.8,0.8,1.8,1.8V28
		C53.5,29,52.7,29.8,51.7,29.8z"/>
	<path class="st0" d="M51.7,41.6h-7.1c-1,0-1.8-0.8-1.8-1.8V36c0-1,0.8-1.8,1.8-1.8h7.1c1,0,1.8,0.8,1.8,1.8v3.8
		C53.5,40.8,52.7,41.6,51.7,41.6z"/>
	<path class="st0" d="M51.7,53.5h-7.1c-1,0-1.8-0.8-1.8-1.8v-3.8c0-1,0.8-1.8,1.8-1.8h7.1c1,0,1.8,0.8,1.8,1.8v3.8
		C53.5,52.7,52.7,53.5,51.7,53.5z"/>
</g>
</svg>
