<svg viewBox="0 0 64 64" xmlns="http://www.w3.org/2000/svg">
<style>
	.st0{fill:none;stroke:#fff;stroke-width:2}
	.st1{fill:#fff;stroke:#fff;stroke-width:2}
</style>
<rect class="st0" width="11.8" height="8.4" x="8.1" y="7.9" ry="1.9"/>
<rect class="st1" width="11.8" height="8.4" x="26" y="7.9" ry="1.9"/>
<rect class="st0" width="11.8" height="8.4" x="44.1" y="7.9" ry="1.9"/>
<rect class="st0" width="11.8" height="8.4" x="8.1" y="21.3" ry="1.9"/>
<rect class="st0" width="11.8" height="8.4" x="26" y="21.3" ry="1.9"/>
<rect class="st0" width="11.8" height="8.4" x="44.1" y="21.3" ry="1.9"/>
<rect class="st0" width="11.8" height="8.4" x="8.1" y="34.4" ry="1.9"/>
<rect class="st0" width="11.8" height="8.4" x="26" y="34.4" ry="1.9"/>
<rect class="st0" width="11.8" height="8.4" x="44.1" y="34.4" ry="1.9"/>
<rect class="st0" width="11.8" height="8.4" x="8.1" y="47.7" ry="1.9"/>
<rect class="st0" width="11.8" height="8.4" x="26.1" y="47.7" ry="1.9"/>
<rect class="st0" width="11.8" height="8.4" x="44.1" y="47.7" ry="1.9"/>
</svg>