<?xml version="1.0" encoding="UTF-8" standalone="no"?>
<svg
   width="64"
   height="64"
   xml:space="preserve"
   version="1.1"
   id="svg33"
   sodipodi:docname="LGUN.svg"
   inkscape:version="1.2.1 (9c6d41e410, 2022-07-14)"
   xmlns:inkscape="http://www.inkscape.org/namespaces/inkscape"
   xmlns:sodipodi="http://sodipodi.sourceforge.net/DTD/sodipodi-0.dtd"
   xmlns="http://www.w3.org/2000/svg"
   xmlns:svg="http://www.w3.org/2000/svg"><sodipodi:namedview
   id="namedview35"
   pagecolor="#ffffff"
   bordercolor="#666666"
   borderopacity="1.0"
   inkscape:showpageshadow="2"
   inkscape:pageopacity="0.0"
   inkscape:pagecheckerboard="0"
   inkscape:deskcolor="#d1d1d1"
   showgrid="false"
   inkscape:zoom="6.4765625"
   inkscape:cx="13.819059"
   inkscape:cy="32.424608"
   inkscape:window-width="1920"
   inkscape:window-height="1009"
   inkscape:window-x="-8"
   inkscape:window-y="-8"
   inkscape:window-maximized="1"
   inkscape:current-layer="svg33" /><defs
   id="defs5"><clipPath
   clipPathUnits="userSpaceOnUse"
   id="a"><path
     d="m-38.26 205.8-44.5 74.96s-9.83 16.08 11.3 5.06c21.14-11.02 56.2-35.54 65.2-48.05 9.01-12.5 15.84-30.3 16.47-37.03.63-6.74-48.47 5.07-48.47 5.07Z"
     style="fill:none;fill-rule:evenodd;stroke:#000;stroke-width:0.8px;stroke-linecap:butt;stroke-linejoin:miter;stroke-opacity:1"
     id="path2" /></clipPath>










</defs>
<path
   style="vector-effect:none;fill:#ffffff;fill-opacity:1;fill-rule:evenodd;stroke:none;stroke-width:1;stroke-linecap:butt;stroke-linejoin:miter;stroke-miterlimit:4;stroke-dasharray:none;stroke-dashoffset:0;stroke-opacity:1"
   d="m 103.85,45.3375 h 6.9 l -1.3,-11.125 c -0.125,-1.4625 2.7125,-1.7 5.425,-3.025 l 1.5875,0.025 0.025,-0.4375 0.825,0.0375 0.0125,-0.275 0.475,0.0125 c 0,0 0.2875,-0.8125 0.3625,-1.375 0.0625,-0.5375 -0.0375,-1.9125 -0.0375,-1.9125 0,0 -0.1625,-0.25 -0.525,-0.25 -0.35,0 -0.0875,-0.85 -0.0875,-0.85 h -0.85 v -0.425 l -0.55,-0.8 -0.9,-0.025 -0.15,0.275 -35.95,0.0125 V 24 c 0,0 -0.125,-1.1875 -1.6125,-0.375 l -3.025,1.675 -0.2375,0.025 v 0.5 l 1.5875,2.75 10.6375,0.75 c 0.05,0.075 -0.1625,0.1875 0.625,0.325 l 11.25,2.125 0.2125,0.6375 1.7,0.325 c 1.95,0.6 0.1125,2.6125 0.6125,2.7625 l 1.7125,0.525 z"
   id="path7" /><g
   id="g343"><path
     style="color:#000000;font-style:normal;font-variant:normal;font-weight:400;font-stretch:normal;font-size:medium;line-height:normal;font-family:sans-serif;font-variant-ligatures:normal;font-variant-position:normal;font-variant-caps:normal;font-variant-numeric:normal;font-variant-alternates:normal;font-feature-settings:normal;text-indent:0;text-align:start;text-decoration:none;text-decoration-line:none;text-decoration-style:solid;text-decoration-color:#000000;letter-spacing:normal;word-spacing:normal;text-transform:none;writing-mode:lr-tb;direction:ltr;text-orientation:mixed;dominant-baseline:auto;baseline-shift:baseline;text-anchor:start;white-space:normal;shape-padding:0;clip-rule:nonzero;display:inline;overflow:visible;visibility:visible;isolation:auto;mix-blend-mode:normal;color-interpolation:sRGB;color-interpolation-filters:linearRGB;solid-color:#000000;solid-opacity:1;vector-effect:none;fill:#ffffff;fill-opacity:1;fill-rule:evenodd;stroke:none;stroke-width:0.45;stroke-linecap:square;stroke-linejoin:miter;stroke-miterlimit:4;stroke-dasharray:none;stroke-dashoffset:0;stroke-opacity:1;color-rendering:auto;image-rendering:auto;shape-rendering:auto;text-rendering:auto;enable-background:accumulate"
     d="m 49.8,20.56 -0.57,0.41 -0.57,0.42 h -3.08 c -2.9,0 -3.1,0.02 -3.44,0.28 -0.1,0.1 -0.24,0.17 -0.33,0.2 h -0.63 l -1.4,2.62 -0.02,0.02 h 0.53 c 2.2,-3.56 9.62,-1.47 13.7,-1.64 a 1.2,1.2 0 0 0 -0.38,-0.1 c -0.37,-0.04 -1.07,-0.4 -2.18,-1.14 z m -36.95,0.69 c -0.48,-0.02 -0.79,0.57 -1.27,1.52 L 10,25.85 c 0.04,0.06 0.43,0.11 0.87,0.11 0.71,0 0.84,0.04 1.04,0.35 l 0.22,0.34 h 13.52 l 0.22,0.46 0.22,0.46 -1.47,-3.12 10.42,0.03 1.23,-2.13 -19.92,0.17 -1.64,-0.61 -1.65,-0.62 a 0.7,0.7 0 0 0 -0.21,-0.04 z m 0.09,0.6 a 0.42,0.42 0 1 1 0,0.82 0.42,0.42 0 0 1 0,-0.83 z m 24.14,0.02 -1.51,2.61 -0.02,0.03 h 0.53 l 0.01,-0.03 0.01,-0.01 1.5,-2.6 z m 1.05,0 -1.5,2.62 -0.02,0.02 h 0.52 l 0.01,-0.02 0.02,-0.04 1.5,-2.58 z m 1.05,0 -1.51,2.62 -0.01,0.02 h 0.52 l 0.02,-0.02 1.5,-2.62 z m 1.05,0 -1.5,2.62 -0.02,0.02 h 0.53 v -0.02 l 1.52,-2.62 z m 13.85,1.05 0.54,1.3 -0.23,-0.68 c -0.12,-0.35 -0.2,-0.52 -0.31,-0.62 z m -1.41,3.73 -11.24,0.06 -0.95,1.84 1.7,3.1 0.33,0.51 c 0.18,0.29 1.3,2.2 2.5,4.27 2.13,3.69 2.16,3.77 2.08,4.39 -0.08,0.6 -0.07,0.64 0.36,0.86 0.24,0.13 1.43,0.47 2.65,0.77 1.94,0.48 2.42,0.55 3.82,0.55 h 1.6 l -0.05,-0.76 c -0.25,-3.54 -2.76,-7.53 -4.73,-9.58 -1.52,-1.57 -1.64,-1.73 -1.8,-2.44 -0.14,-0.7 -0.12,-0.81 0.19,-1.43 0.38,-0.78 0.96,-1.22 2,-1.52 0.4,-0.12 0.77,-0.3 0.8,-0.42 0.06,-0.13 0.3,-0.2 0.74,-0.2 z m -12.19,1.9 -0.95,-0.03 v 0.04 z m 2.98,1.5 c 0.26,0.01 0.7,0.15 1.39,0.5 5.55,2.13 7.05,4.9 8.69,7.8 h -0.01 c 0.59,1.37 0.82,2.8 0.9,3.5 -1.77,-0.07 -5.27,-0.9 -5.27,-0.9 l -5.78,-9.74 c 0,0 -0.72,-1.17 0.08,-1.16 z"
     id="path9" /><path
     style="fill:none;fill-opacity:1;fill-rule:evenodd;stroke:#ffffff;stroke-width:0.75;stroke-linecap:butt;stroke-linejoin:miter;stroke-miterlimit:4;stroke-dasharray:none;stroke-opacity:1"
     d="m 39.525,28.5625 0.9625,-0.0125 1.7,3.0875 h -3.025 c 0,0 0.6625,-0.5625 0.3625,-3.075 z"
     id="path11" /><path
     style="fill:#ffffff;fill-opacity:1;fill-rule:evenodd;stroke:#ffffff;stroke-width:1;stroke-linecap:butt;stroke-linejoin:miter;stroke-miterlimit:4;stroke-dasharray:none;stroke-opacity:1"
     d="m 24.625,24.45 1.4625,3.125 13.4375,0.95 0.9625,0.025 0.9375,-1.85 11.9125,-0.05 1.2875,-2.425 -0.5625,-1.35 -12.825,-0.075 -0.975,1.7 z"
     id="path13" /><path
     style="fill:#ffffff;fill-opacity:1;fill-rule:evenodd;stroke:none;stroke-width:0.10375px;stroke-linecap:butt;stroke-linejoin:miter;stroke-opacity:1"
     d="M 48.6625,21.3875 H 51.1 l -1.3,-0.825 z"
     id="path15" /></g><g
   id="g337"><path
     d="m -22.0375,25.0375 -0.575,0.4125 -0.575,0.4125 H -26.25 c -2.8875,0 -3.1,0.0125 -3.4375,0.2875 -0.1125,0.0875 -0.25,0.1625 -0.325,0.2 H -30.65 l -1.4125,2.625 h 0.525 c 2.25,-3.8 9.6625,-1.65 13.7,-1.625 a 7.1125,7.1125 0 0 1 -2.55,-1.25 z M -59,25.725 c -0.475,-0.025 -0.775,0.575 -1.2625,1.5125 l -1.575,3.0875 c 0.0375,0.0625 0.425,0.1125 0.875,0.1125 0.7,0 0.825,0.0375 1.025,0.3375 l 0.225,0.35 H -46.2 l 0.225,0.4625 0.225,0.4625 -1.4625,-3.125 10.4125,0.025 1.225,-2.125 -19.9125,0.1625 -1.65,-0.6125 -1.65,-0.6125 A 0.7,0.7 0 0 0 -59,25.725 Z m 0.1,0.5875 a 0.41875,0.41875 0 1 1 0,0.8375 0.41875,0.41875 0 0 1 0,-0.8375 z m 24.125,0.0375 -1.5,2.6 -0.0125,0.0375 h 0.525 l 0.0125,-0.025 v -0.025 l 1.5,-2.5875 z m 1.0625,0 -1.5,2.6125 -0.025,0.025 h 0.525 l 0.0125,-0.025 0.025,-0.0375 1.5,-2.575 z m 1.05,0 -1.5,2.6125 -0.025,0.025 h 0.525 l 0.0125,-0.025 1.5125,-2.625 z m 1.05,0 -1.5,2.625 h -0.025 0.5375 l 1.5125,-2.625 z m 13.85,1.05 0.5375,1.3 -0.225,-0.6875 c -0.125,-0.35 -0.2,-0.525 -0.3125,-0.625 z m -1.4125,3.725 -11.25,0.05 -0.9375,1.85 1.7,3.0875 0.325,0.525 c 0.1875,0.2875 1.3125,2.2 2.5,4.275 2.125,3.675 2.175,3.7625 2.0875,4.375 -0.0875,0.6125 -0.075,0.65 0.35,0.875 0.25,0.125 1.4375,0.4625 2.6625,0.7625 a 12.425,12.425 0 0 0 3.8125,0.55 h 1.6125 l -0.0625,-0.75 c -0.25,-3.5625 -2.75,-7.5375 -4.725,-9.5875 -1.525,-1.575 -1.65,-1.7375 -1.7875,-2.4375 -0.15,-0.7 -0.1375,-0.8125 0.175,-1.4375 0.375,-0.775 0.9625,-1.225 2,-1.525 0.4125,-0.125 0.7625,-0.3 0.8125,-0.4125 0.05,-0.125 0.2875,-0.2 0.725,-0.2 z m -12.1875,1.9 -0.95,-0.025 v 0.0375 z m 2.975,1.5 c 0.275,0 0.7,0.15 1.3875,0.5 5.55,2.125 7.05,4.9 8.7,7.8 h -0.0125 c 0.5875,1.375 0.8125,2.8 0.9,3.5 -1.7625,-0.0625 -5.275,-0.9 -5.275,-0.9 l -5.775,-9.75 c 0,0 -0.725,-1.1625 0.075,-1.15 z"
     style="color:#000000;font-style:normal;font-variant:normal;font-weight:400;font-stretch:normal;font-size:medium;line-height:normal;font-family:sans-serif;font-variant-ligatures:normal;font-variant-position:normal;font-variant-caps:normal;font-variant-numeric:normal;font-variant-alternates:normal;font-feature-settings:normal;text-indent:0;text-align:start;text-decoration:none;text-decoration-line:none;text-decoration-style:solid;text-decoration-color:#000000;letter-spacing:normal;word-spacing:normal;text-transform:none;writing-mode:lr-tb;direction:ltr;text-orientation:mixed;dominant-baseline:auto;baseline-shift:baseline;text-anchor:start;white-space:normal;shape-padding:0;clip-rule:nonzero;display:inline;overflow:visible;visibility:visible;isolation:auto;mix-blend-mode:normal;color-interpolation:sRGB;color-interpolation-filters:linearRGB;solid-color:#000000;solid-opacity:1;vector-effect:none;fill:#ffffff;fill-opacity:1;fill-rule:evenodd;stroke:none;stroke-width:0.455701;stroke-linecap:square;stroke-linejoin:miter;stroke-miterlimit:4;stroke-dasharray:none;stroke-dashoffset:0;stroke-opacity:1;color-rendering:auto;image-rendering:auto;shape-rendering:auto;text-rendering:auto;enable-background:accumulate"
     id="path17" /><path
     d="m -32.3125,33.0375 0.95,-0.0125 1.7125,3.0875 h -3.0375 c 0,0 0.675,-0.5625 0.375,-3.075 z"
     style="fill:none;fill-opacity:1;fill-rule:evenodd;stroke:#ffffff;stroke-width:0.75;stroke-linecap:butt;stroke-linejoin:miter;stroke-miterlimit:4;stroke-dasharray:none;stroke-opacity:1"
     id="path19" /><path
     d="m -47.2125,28.925 1.4625,3.125 13.4375,0.95 0.95,0.025 0.95,-1.85 11.9125,-0.05 1.2875,-2.425 -0.575,-1.35 -12.8125,-0.075 -0.975,1.7 z"
     style="fill:none;fill-opacity:1;fill-rule:evenodd;stroke:#ffffff;stroke-width:1;stroke-linecap:butt;stroke-linejoin:miter;stroke-miterlimit:4;stroke-dasharray:none;stroke-opacity:1"
     id="path21" /><circle
     r="0.5"
     cy="28.65"
     cx="-20.3125"
     style="color:#000000;clip-rule:nonzero;display:inline;overflow:visible;visibility:visible;isolation:auto;mix-blend-mode:normal;color-interpolation:sRGB;color-interpolation-filters:linearRGB;solid-color:#000000;solid-opacity:1;vector-effect:none;fill:#ffffff;fill-opacity:1;fill-rule:nonzero;stroke:none;stroke-width:0.107053;stroke-linecap:butt;stroke-linejoin:miter;stroke-miterlimit:4;stroke-dasharray:none;stroke-dashoffset:0;stroke-opacity:1;paint-order:markers stroke fill;color-rendering:auto;image-rendering:auto;shape-rendering:auto;text-rendering:auto;enable-background:accumulate"
     id="circle23" /><circle
     r="0.5"
     style="color:#000000;clip-rule:nonzero;display:inline;overflow:visible;visibility:visible;isolation:auto;mix-blend-mode:normal;color-interpolation:sRGB;color-interpolation-filters:linearRGB;solid-color:#000000;solid-opacity:1;vector-effect:none;fill:#ffffff;fill-opacity:1;fill-rule:nonzero;stroke:none;stroke-width:0.1;stroke-linecap:butt;stroke-linejoin:miter;stroke-miterlimit:4;stroke-dasharray:none;stroke-dashoffset:0;stroke-opacity:1;paint-order:markers stroke fill;color-rendering:auto;image-rendering:auto;shape-rendering:auto;text-rendering:auto;enable-background:accumulate"
     cx="-29.3125"
     cy="28.949999"
     id="circle25" /><circle
     r="0.5"
     cy="30.65"
     cx="-44.3125"
     style="color:#000000;clip-rule:nonzero;display:inline;overflow:visible;visibility:visible;isolation:auto;mix-blend-mode:normal;color-interpolation:sRGB;color-interpolation-filters:linearRGB;solid-color:#000000;solid-opacity:1;vector-effect:none;fill:#ffffff;fill-opacity:1;fill-rule:nonzero;stroke:none;stroke-width:0.1;stroke-linecap:butt;stroke-linejoin:miter;stroke-miterlimit:4;stroke-dasharray:none;stroke-dashoffset:0;stroke-opacity:1;paint-order:markers stroke fill;color-rendering:auto;image-rendering:auto;shape-rendering:auto;text-rendering:auto;enable-background:accumulate"
     id="circle27" /><path
     d="m -23.1875,25.8625 h 2.45 l -1.3,-0.825 z"
     style="fill:#ffffff;fill-opacity:1;fill-rule:evenodd;stroke:none;stroke-width:0.1px;stroke-linecap:butt;stroke-linejoin:miter;stroke-opacity:1"
     id="path29" /></g>
</svg>
