<svg viewBox="0 0 64 64" xmlns="http://www.w3.org/2000/svg">
<style>
	.st0{fill:#fff}
</style>
<g>
	<path class="st0" d="M54,25.2h0.4c-0.1-2.1-1.7-4.8-1.7-4.8h-1.5c0.1,0.5,0.3,2,0.3,2C52.5,22.5,53.7,23.3,54,25.2z"/>
	<path class="st0" d="M38.7,27.9c-0.4,0-1.2,0-1.2,0s0.8,0.8,0.8,2s-0.8,2-0.8,2s0.9,0,1.3,0c0.4,0,1.7-0.6,1.7-2C40.4,28.5,39.1,27.9,38.7,27.9z"/>
	<path class="st0" d="M9.8,22.9c0.1,0,26.9,0,26.9,0l-1.1-4.5h0.8l1,4.5h1l-1-4.5h0.8l1,4.5h1l-1-4.5H40l1,4.5h1l-1-4.5h0.8l1,4.5h1l-1-4.5h0.9l1,4.5h6.5c0,0-0.1-1-0.4-2.4c-0.3-1.4-1-2.2-1-2.2l-0.9-0.9l-0.3-1.6h-1l-0.3,0.8h-2.1l-0.5,0.8h-6.1v0.4H20v-0.4h-2.7c0,0-0.2-0.3-0.7-0.3s-0.8,0.3-0.8,0.3h-2.3c0,0,0.1-0.8-0.4-0.8s-2.8,1.3-2.8,1.3v0.7c0,0-0.3,0-0.4,0c-0.5,0-0.8,1-0.8,2.2C9,21.9,9.4,22.9,9.8,22.9z M17.4,19.3h12.1c0.4,0,0.7,0.3,0.7,0.7v1c0,0.4-0.3,0.7-0.7,0.7H17.4c-0.4,0-0.7-0.3-0.7-0.7v-1C16.7,19.6,17,19.3,17.4,19.3z"/>
	<path class="st0" d="M9.8,24.5c-0.5,0-0.8,1-0.8,2.2s0.4,2.1,0.8,2.2h0.9v-1.1l3.2-3.2C13.8,24.5,9.8,24.5,9.8,24.5z"/>
	<path class="st0" d="M55,45.1c0,0,0-4.2-1.6-8.6s-3.8-3.7-3.8-6.4s3.2-3.4,3.7-3.4c0.5-0.1,0.6-0.4,0.6-0.4s0-1.1-0.3-1.7c-0.2-0.5-0.5-1-0.8-1.2H10.3V24H29v5.4h-2.4v1.1h1.8c0.9,1,0.8,2.9,0.8,2.9s3.7,0,5.1,0s1.7,0.4,3.2,0.4s2.6-0.5,3.6-0.5s1.2,1.3,1.2,1.3s2.8,9.7,2.8,10.7s-0.4,1.4-0.4,1.4L46,48l1-0.2l0.3,0.6h6l0.3-2l0.7-0.2L55,45.1z M38.5,32.3h-3.9c-1.4,0-2.4-1-2.4-2.4s1.1-2.4,2.4-2.4h3.9c1.3,0,2.4,0.8,2.4,2.4S39.7,32.3,38.5,32.3z M53.8,45.1h-5.9l-4.7-16.7H49c0,0-3.5,0.1-3.5,1.7s3.8,2.1,3.8,2.1s2.1,2.1,3.3,5.3C54,41,53.8,45.1,53.8,45.1z"/>
	<rect x="26.6" y="24.5" class="st0" width="1.9" height="4.4"/>
	<path class="st0" d="M11.2,27.9v3.9l1.7,1.5h10.6l2.7-2.5v-6.4H14.6L11.2,27.9z M16,25.2c0.8,0,1.5,0.7,1.5,1.5s-0.7,1.5-1.5,1.5s-1.5-0.7-1.5-1.5C14.6,25.9,15.2,25.2,16,25.2z"/>
</g>
</svg>