<svg viewBox="0 0 64 64" xmlns="http://www.w3.org/2000/svg">
<style>
.st0{fill:none;stroke:#fff;stroke-width:2}
.st2{fill:#fff}
</style>
<g>
	<path class="st2" d="m32.1 9.9-3.8 6.4h7.4z"/>
	<rect class="st0" width="13" height="13" x="25.5" y="7" ry="1.75"/>
</g>
<rect class="st0" width="13" height="13" x="44" y="7" ry="1.75"/>
<path class="st2" d="M45.75 24.5A2.77 2.77 0 0 0 43 27.25v9.5c0 1.5 1.24 2.75 2.75 2.75h9.5c1.5 0 2.75-1.24 2.75-2.75v-9.5c0-1.5-1.24-2.75-2.75-2.75h-9.5zm2.05 3.8 6.4 3.8-6.4 3.6v-7.4z"/>
<rect class="st0" width="13" height="13" x="44" y="44" ry="1.75"/>
<g>
	<path class="st2" d="m31.9 54.1 3.8-6.4h-7.4z"/>
	<rect class="st0" width="13" height="13" x="25.5" y="44" ry="1.75"/>
</g>
<rect class="st0" width="13" height="13" x="7" y="44" ry="1.75"/>
<g>
	<path class="st2" d="m16.3 28.3-6.4 3.6 6.4 3.8z"/>
	<rect class="st0" width="13" height="13" x="7" y="25.5" ry="1.75"/>
</g>
<rect class="st0" width="13" height="13" x="7" y="7" ry="1.75"/>
</svg>