<?xml version="1.0" encoding="utf-8"?>
<!-- Generator: Adobe Illustrator 24.2.0, SVG Export Plug-In . SVG Version: 6.00 Build 0)  -->
<svg version="1.1"
	 id="Calque_1" xmlns:cc="http://creativecommons.org/ns#" xmlns:dc="http://purl.org/dc/elements/1.1/" xmlns:inkscape="http://www.inkscape.org/namespaces/inkscape" xmlns:rdf="http://www.w3.org/1999/02/22-rdf-syntax-ns#" xmlns:sodipodi="http://sodipodi.sourceforge.net/DTD/sodipodi-0.dtd" xmlns:svg="http://www.w3.org/2000/svg"
	 xmlns="http://www.w3.org/2000/svg" xmlns:xlink="http://www.w3.org/1999/xlink" x="0px" y="0px" viewBox="0 0 64 64"
	 style="enable-background:new 0 0 64 64;" xml:space="preserve">
<style type="text/css">
	.st0{fill:none;stroke:#FFFFFF;stroke-width:2;stroke-miterlimit:10;}
	.st1{fill:#FFFFFF;}
</style>
<path class="st0" d="M18,20H9c-1.1,0-2-0.9-2-2V9c0-1.1,0.9-2,2-2h9c1.1,0,2,0.9,2,2v9C20,19.1,19.1,20,18,20z"/>
<g>
	<path class="st1" d="M55,58h-9c-1.7,0-3-1.3-3-3v-9c0-1.7,1.3-3,3-3h9c1.7,0,3,1.3,3,3v9C58,56.7,56.7,58,55,58z"/>
</g>
<path class="st0" d="M55,20h-9c-1.1,0-2-0.9-2-2V9c0-1.1,0.9-2,2-2h9c1.1,0,2,0.9,2,2v9C57,19.1,56.1,20,55,20z"/>
<polygon class="st1" points="32.1,9.9 28.3,16.3 35.7,16.3 "/>
<path class="st0" d="M36.5,20h-9c-1.1,0-2-0.9-2-2V9c0-1.1,0.9-2,2-2h9c1.1,0,2,0.9,2,2v9C38.5,19.1,37.6,20,36.5,20z"/>
<path class="st0" d="M18,57H9c-1.1,0-2-0.9-2-2v-9c0-1.1,0.9-2,2-2h9c1.1,0,2,0.9,2,2v9C20,56.1,19.1,57,18,57z"/>
<polygon class="st1" points="54.2,32.1 47.8,28.3 47.8,35.7 "/>
<path class="st0" d="M44,36.5v-9c0-1.1,0.9-2,2-2h9c1.1,0,2,0.9,2,2v9c0,1.1-0.9,2-2,2h-9C44.9,38.5,44,37.6,44,36.5z"/>
<polygon class="st1" points="31.9,54.2 35.7,47.8 28.3,47.8 "/>
<path class="st0" d="M27.5,44h9c1.1,0,2,0.9,2,2v9c0,1.1-0.9,2-2,2h-9c-1.1,0-2-0.9-2-2v-9C25.5,44.9,26.4,44,27.5,44z"/>
<polygon class="st1" points="9.9,31.9 16.3,35.7 16.3,28.3 "/>
<path class="st0" d="M20,27.5v9c0,1.1-0.9,2-2,2H9c-1.1,0-2-0.9-2-2v-9c0-1.1,0.9-2,2-2h9C19.1,25.5,20,26.4,20,27.5z"/>
</svg>
