<svg viewBox="0 0 64 64" xmlns="http://www.w3.org/2000/svg">
<style>
	.st0{fill:#fff}
</style>
<path class="st0" d="M31.5 18.01c-9.63.14-8.5 4.1-8.5 8.99v1.03c4 .2 6.29.31 8.5.32v-2.4l-.04-.02c-.2-.06-.39-.13-.55-.24l-.2-.15-.07-.06a1.99 1.99 0 0 1-.44-.6l-.06-.13a1.91 1.91 0 0 1-.08-.23l-.02-.1a1.87 1.87 0 0 1-.04-.37v-2.1c0-.13.02-.25.04-.37 0-.04.02-.07.03-.1a1.9 1.9 0 0 1 .56-.95l.1-.08c.05-.04.1-.1.17-.13l.08-.05c.15-.08.3-.15.48-.2l.04-.01V18zm1 0v2.05c.2.05.39.13.56.23l.03.02.2.15.07.07a1.98 1.98 0 0 1 .44.6l.06.11.07.24.03.1c.02.12.04.24.04.37v2.1c0 .13-.02.25-.04.37l-.02.09a1.9 1.9 0 0 1-.08.25l-.05.11a1.93 1.93 0 0 1-.45.6l-.06.06-.2.16c-.19.11-.39.2-.6.25v2.41c2.21-.01 4.5-.11 8.5-.32V27c0-4.9 1.13-8.85-8.5-8.99zM23 29.02V39c0 4.99 4.01 9 9 9s9-4.01 9-9v-9.98c-4.24.23-6.71.35-9 .35s-4.76-.12-9-.35z"/>
</svg>