<svg viewBox="0 0 64 64" xmlns="http://www.w3.org/2000/svg">
<style>
	.st0{fill:#fff}
</style>
<g>
	<path class="st0" d="M39.86,32.33c0,1.88,0,16.88,0,16.88h-6.01v-1.88h-3.7v1.88h-6.01c0,0,0-15,0-16.88c0-1.88-2.34-4.71-2.34-4.71l0.03,25.84c0,1.97,1.54,3.59,3.51,3.69L32,57.53l6.67-0.38c1.96-0.11,3.5-1.73,3.51-3.69l0.03-25.84C42.2,27.62,39.86,30.45,39.86,32.33z"/>
	<path class="st0" d="M38.59,7.76c0,0-3.67-1.29-6.59-1.29c-2.92,0-6.59,1.29-6.59,1.29s-3.61,4.9-3.61,11.31c0,6.41,3.86,8.3,3.86,14.89c0,4.61,0.09,13.59,0.09,13.59h3.19v-1.73h6.12v1.73h3.19c0,0,0.09-8.98,0.09-13.59c0-6.59,3.86-8.48,3.86-14.89C42.2,12.65,38.59,7.76,38.59,7.76z M28.79,13.32h6.42c0.59,0,1.07,0.36,1.07,0.8
		c0,0.44-0.48,0.8-1.07,0.8h-6.42c-0.59,0-1.07-0.36-1.07-0.8C27.72,13.68,28.2,13.32,28.79,13.32z M35.21,25.1h-6.42c-0.59,0-1.07-0.36-1.07-0.8c0-0.44,0.48-0.8,1.07-0.8h6.42c0.59,0,1.07,0.36,1.07,0.8C36.28,24.74,35.8,25.1,35.21,25.1z M36.54,19.79h-9.07c-0.59,0-1.07-0.36-1.07-0.8s0.48-0.8,1.07-0.8h9.07c0.59,0,1.07,0.36,1.07,0.8S37.12,19.79,36.54,19.79z"/>
</g>
</svg>