<?xml version="1.0" encoding="utf-8"?>
<!-- Generator: Adobe Illustrator 24.2.1, SVG Export Plug-In . SVG Version: 6.00 Build 0)  -->
<svg version="1.1"
	 id="svg4152" xmlns:cc="http://creativecommons.org/ns#" xmlns:dc="http://purl.org/dc/elements/1.1/" xmlns:inkscape="http://www.inkscape.org/namespaces/inkscape" xmlns:rdf="http://www.w3.org/1999/02/22-rdf-syntax-ns#" xmlns:sodipodi="http://sodipodi.sourceforge.net/DTD/sodipodi-0.dtd" xmlns:svg="http://www.w3.org/2000/svg"
	 xmlns="http://www.w3.org/2000/svg" xmlns:xlink="http://www.w3.org/1999/xlink" x="0px" y="0px" viewBox="0 0 64 64"
	 style="enable-background:new 0 0 64 64;" xml:space="preserve">
<style type="text/css">
	.st0{fill:none;stroke:#FFFFFF;stroke-width:2;stroke-miterlimit:10;}
	.st1{fill:none;stroke:#FFFFFF;stroke-miterlimit:10;}
	.st2{fill:#FFFFFF;}
</style>
<path class="st0" d="M47.65,16.6h1.95c2.1,0,3.9,1.8,3.9,3.9v28.2c0,2.1-1.7,3.9-3.9,3.9H14.4c-2.1,0-3.9-1.8-3.9-3.9V20.5
	c0-2.2,1.7-3.9,3.9-3.9h1.95"/>
<path class="st0" d="M28.25,16.6h8.5"/>
<path class="st1" d="M18.55,48.6v-4.7c0-1.4,1.1-2.5,2.5-2.5h21.9c1.4,0,2.5,1.1,2.5,2.5v4.7"/>
<sodipodi:namedview  bordercolor="#666666" borderopacity="1" gridtolerance="10" guidetolerance="10" id="namedview4154" inkscape:current-layer="g4160" inkscape:cx="27.963829" inkscape:cy="33.85436" inkscape:guide-bbox="true" inkscape:pageopacity="0" inkscape:pageshadow="2" inkscape:window-height="705" inkscape:window-maximized="1" inkscape:window-width="1024" inkscape:window-x="-8" inkscape:window-y="-8" inkscape:zoom="7.5999999" objecttolerance="10" pagecolor="#808080" showgrid="false" showguides="true">
	<inkscape:grid  id="grid836" type="xygrid"></inkscape:grid>
</sodipodi:namedview>
<g>
	<g>
		<path class="st2" d="M26.55,35.1h-8.5c-1.41,0-2.54-1.09-2.69-2.6l0-0.1V13.1c0-1.51,1.19-2.7,2.7-2.7h8.5
			c1.51,0,2.7,1.19,2.7,2.7v19.3C29.25,33.91,28.06,35.1,26.55,35.1z"/>
	</g>
	<path class="st0" d="M45.95,34.1c1,0,1.7-0.8,1.7-1.7V13.1c0-1-0.8-1.7-1.7-1.7h-7.5c-1,0-1.7,0.8-1.7,1.7v8.8c0,1-0.8,1.7-1.7,1.7
		l0,0c-1,0-1.7,0.8-1.7,1.7v7.1c0,1,0.8,1.7,1.7,1.7C35.05,34.1,45.95,34.1,45.95,34.1z"/>
</g>
</svg>
