<svg viewBox="0 0 64 64" xmlns="http://www.w3.org/2000/svg">
<style>
	.st0{fill:none;stroke:#fff;stroke-width:2}
	.st1{fill:none;stroke:#fff;stroke-width:1}
	.st2{fill:#fff}
</style>
<path class="st0" d="M47.65,16.6h1.95c2.1,0,3.9,1.8,3.9,3.9v28.2c0,2.1-1.7,3.9-3.9,3.9H14.4c-2.1,0-3.9-1.8-3.9-3.9V20.5c0-2.2,1.7-3.9,3.9-3.9h1.95"/>
<path class="st0" d="M28.25,16.6h8.5"/>
<path class="st1" d="M18.55,48.6v-4.7c0-1.4,1.1-2.5,2.5-2.5h21.9c1.4,0,2.5,1.1,2.5,2.5v4.7"/>
<g>
	<path class="st2" d="M16.35,32.4V13.1c0-1,0.8-1.7,1.7-1.7h8.5c1,0,1.7,0.8,1.7,1.7v19.3c0,1-0.8,1.7-1.7,1.7h-8.5C17.15,34.1,16.45,33.4,16.35,32.4z"/>
	<g>
		<path class="st0" d="M45.95,34.1c1,0,1.7-0.8,1.7-1.7V13.1c0-1-0.8-1.7-1.7-1.7h-7.5c-1,0-1.7,0.8-1.7,1.7v8.8c0,1-0.8,1.7-1.7,1.7
		l0,0c-1,0-1.7,0.8-1.7,1.7v7.1c0,1,0.8,1.7,1.7,1.7C35.05,34.1,45.95,34.1,45.95,34.1z"/>
	</g>
</g>
</svg>