<svg viewBox="0 0 64 64" xmlns="http://www.w3.org/2000/svg">
<style>
	.st0{fill:none;stroke:#fff;stroke-width:2}
	.st1{fill:none;stroke:#fff;stroke-width:1}
	.st2{fill:#fff;stroke:#fff;stroke-width:2}
</style>
<path class="st0" d="M36,19.6h6.7"/>
<path class="st0" d="M22.1,19.6h4.2"/>
<path class="st0" d="M52.4,19.6h1.5c1.7,0,3.1,1.5,3.1,3.1v22.7c0.1,1.8-1.3,3.2-3.1,3.2H10.2c-1.7,0-3.1-1.5-3.1-3.1V22.7c0-1.8,1.4-3.1,3.1-3.1h2.2"/>
<path class="st1" d="M14.3,45.4v-3.8c0-1.1,0.9-2,2-2h32.2c1.1,0,2,0.9,2,2v3.8"/>
<path class="st0" d="M13.8,15.4h6.9c0.7,0,1.4,0.6,1.4,1.4v15.6c0,0.7-0.6,1.4-1.4,1.4h-6.9c-0.7,0-1.4-0.62-1.4-1.42V16.8C12.5,16,13.1,15.4,13.8,15.4z"/>
<path class="st2" d="M27.7,15.4h6.9c0.7,0,1.4,0.6,1.4,1.4v15.56c0,0.7-0.6,1.44-1.4,1.44h-6.9c-0.7,0-1.4-0.66-1.4-1.46V16.8C26.4,16,27,15.4,27.7,15.4z"/>
<path class="st0" d="M51,33.8c0.8,0,1.4-0.7,1.4-1.5V16.8c0-0.8-0.6-1.4-1.4-1.4h-6.9c-0.8,0-1.4,0.6-1.4,1.4v7.1c0,0.8-0.6,1.4-1.4,1.4l0,0c-0.8,0-1.4,0.6-1.4,1.4v5.62c0,0.8,0.6,1.48,1.4,1.48H51z"/>
</svg>