<?xml version="1.0" encoding="utf-8"?>
<!-- Generator: Adobe Illustrator 24.2.1, SVG Export Plug-In . SVG Version: 6.00 Build 0)  -->
<svg version="1.1"
	 id="svg4152" xmlns:cc="http://creativecommons.org/ns#" xmlns:dc="http://purl.org/dc/elements/1.1/" xmlns:inkscape="http://www.inkscape.org/namespaces/inkscape" xmlns:rdf="http://www.w3.org/1999/02/22-rdf-syntax-ns#" xmlns:sodipodi="http://sodipodi.sourceforge.net/DTD/sodipodi-0.dtd" xmlns:svg="http://www.w3.org/2000/svg"
	 xmlns="http://www.w3.org/2000/svg" xmlns:xlink="http://www.w3.org/1999/xlink" x="0px" y="0px" viewBox="0 0 64 64"
	 style="enable-background:new 0 0 64 64;" xml:space="preserve">
<style type="text/css">
	.st0{fill:none;stroke:#FFFFFF;stroke-width:2;stroke-miterlimit:10;}
	.st1{fill:none;stroke:#FFFFFF;stroke-miterlimit:10;}
	.st2{fill:#FFFFFF;}
</style>
<path class="st0" d="M36,19.6h6.7"/>
<path class="st0" d="M22.1,19.6h4.2"/>
<path class="st0" d="M52.4,19.6h1.5c1.7,0,3.1,1.5,3.1,3.1v22.7c0.1,1.8-1.3,3.2-3.1,3.2H10.2c-1.7,0-3.1-1.5-3.1-3.1V22.7
	c0-1.8,1.4-3.1,3.1-3.1h2.2"/>
<path class="st1" d="M14.3,45.4v-3.8c0-1.1,0.9-2,2-2h32.2c1.1,0,2,0.9,2,2v3.8"/>
<g>
	<path class="st2" d="M34.6,34.8h-6.9c-1.28,0-2.4-1.15-2.4-2.46l0.01-15.66c0.16-1.3,1.19-2.28,2.39-2.28h6.9
		c1.3,0,2.4,1.1,2.4,2.4v15.56C37,33.54,36.04,34.8,34.6,34.8z"/>
</g>
<path class="st0" d="M51,33.8c0.8,0,1.4-0.7,1.4-1.5V16.8c0-0.8-0.6-1.4-1.4-1.4h-6.9c-0.8,0-1.4,0.6-1.4,1.4v7.1
	c0,0.8-0.6,1.4-1.4,1.4l0,0c-0.8,0-1.4,0.6-1.4,1.4v5.62c0,0.8,0.6,1.48,1.4,1.48H51z"/>
<path class="st0" d="M13.8,15.4h6.9c0.7,0,1.4,0.6,1.4,1.4v15.6c0,0.7-0.6,1.4-1.4,1.4h-6.9c-0.7,0-1.4-0.62-1.4-1.42V16.8
	C12.5,16,13.1,15.4,13.8,15.4z"/>
</svg>
