<?xml version="1.0" encoding="utf-8"?>
<svg version="1.1" id="svg4152" xmlns:cc="http://creativecommons.org/ns#" xmlns:dc="http://purl.org/dc/elements/1.1/" xmlns:rdf="http://www.w3.org/1999/02/22-rdf-syntax-ns#" xmlns:svg="http://www.w3.org/2000/svg" xmlns="http://www.w3.org/2000/svg" xmlns:xlink="http://www.w3.org/1999/xlink" x="0px" y="0px" viewBox="0 0 64 64" style="enable-background:new 0 0 64 64;" xml:space="preserve">
<style type="text/css">
	.st0{fill:none;stroke:#FFFFFF;stroke-width:1.5;stroke-miterlimit:5;}
</style>
<g>
	<path class="st0" d="M11.2,26.4c0-2.2,1.8-4,4-4s4,1.8,4,4s-1.8,4-4,4S11.2,28.6,11.2,26.4z"/>
	<path class="st0" d="M22.4,26.4c0-2.2,1.8-4,4-4s4,1.8,4,4s-1.8,4-4,4S22.3,28.5,22.4,26.4z"/>
	<path class="st0" d="M32,33.7c2.2,0,4,1.8,4,4s-1.8,4-4,4s-4-1.8-4-4C28,35.4,29.8,33.6,32,33.7z"/>
	<path class="st0" d="M16.8,37.6c0-2.2,1.8-4,4-4s4,1.8,4,4s-1.8,4-4,4S16.8,39.9,16.8,37.6z"/>
	<path class="st0" d="M5.5,37.6c0-2.2,1.8-4,4-4s4,1.8,4,4s-1.8,4-4,4S5.5,39.9,5.5,37.6z"/>
	<path class="st0" d="M33.6,26.4c0-2.2,1.8-4,4-4s4,1.8,4,4s-1.8,4-4,4S33.6,28.6,33.6,26.4z"/>
	<path class="st0" d="M44.8,26.4c0-2.2,1.8-4,4-4s4,1.8,4,4s-1.8,4-4,4S44.8,28.5,44.8,26.4z"/>
	<path class="st0" d="M54.5,33.7c2.2,0,4,1.8,4,4s-1.8,4-4,4s-4-1.8-4-4C50.5,35.4,52.3,33.6,54.5,33.7z"/>
	<path class="st0" d="M39.3,37.6c0-2.2,1.8-4,4-4s4,1.8,4,4s-1.8,4-4,4S39.3,39.9,39.3,37.6z"/>
</g>
</svg>