<?xml version="1.0" encoding="utf-8"?>
<!-- Generator: Adobe Illustrator 24.2.3, SVG Export Plug-In . SVG Version: 6.00 Build 0)  -->
<svg version="1.1" id="Layer_2" xmlns="http://www.w3.org/2000/svg" xmlns:xlink="http://www.w3.org/1999/xlink" x="0px" y="0px"
	 viewBox="0 0 256 256" style="enable-background:new 0 0 256 256;" xml:space="preserve">
<style type="text/css">
	.st0{fill:none;stroke:#FFFFFF;stroke-width:4;stroke-miterlimit:10;}
	.st1{fill:#FFFFFF;}
</style>
<path class="st0" d="M128,202.07c-5.25,0-9.5-4.25-9.5-9.5s4.25-9.5,9.5-9.5s9.5,4.25,9.5,9.5S133.25,202.07,128,202.07z"/>
<circle class="st0" cx="128" cy="55.94" r="35.5"/>
<path class="st1" d="M127.86,8.41C99.29,8.48,75.5,31.49,74.53,60.05c-0.43,12.66,3.55,24.38,10.51,33.74
	c2.34,3.15,3.52,7.01,3.52,10.94v102.99c0,22.15,18.13,40.7,40.27,40.27c21.46-0.41,38.73-17.93,38.73-39.49V104.29
	c0-3.91,1.33-7.67,3.64-10.83c6.47-8.85,10.3-19.76,10.3-31.56C181.5,32.31,157.47,8.33,127.86,8.41z M109.65,230.88
	c-2.42,0-4.38-1.96-4.38-4.38c0-2.42,1.96-4.38,4.38-4.38c2.42,0,4.38,1.96,4.38,4.38C114.03,228.92,112.07,230.88,109.65,230.88z
	 M128,239.49c-5.25,0-9.5-4.25-9.5-9.5s4.25-9.5,9.5-9.5s9.5,4.25,9.5,9.5S133.25,239.49,128,239.49z M146.35,230.88
	c-2.42,0-4.38-1.96-4.38-4.38c0-2.42,1.96-4.38,4.38-4.38c2.42,0,4.38,1.96,4.38,4.38C150.74,228.92,148.77,230.88,146.35,230.88z
	 M158.68,83.13c-3.15,3.55-4.91,8.13-4.91,12.88v93.66c0,14.06-11.27,25.49-25.27,25.76c-14.44,0.27-26.26-11.9-26.26-26.34V96.01
	c0-4.7-1.68-9.26-4.81-12.77c-6.85-7.67-10.87-17.92-10.38-29.12c0.92-21.29,18.45-38.55,39.76-39.16
	c23.19-0.66,42.2,17.94,42.2,40.98C169,66.37,165.1,75.89,158.68,83.13z"/>
<circle class="st0" cx="128" cy="111.01" r="9.5"/>
<circle class="st0" cx="128" cy="138.19" r="9.5"/>
<circle class="st0" cx="128" cy="165.38" r="9.5"/>
</svg>
