<?xml version="1.0" encoding="utf-8"?>
<!-- Generator: Adobe Illustrator 24.2.3, SVG Export Plug-In . SVG Version: 6.00 Build 0)  -->
<svg version="1.1" id="Layer_2_1_" xmlns="http://www.w3.org/2000/svg" xmlns:xlink="http://www.w3.org/1999/xlink" x="0px" y="0px"
	 viewBox="0 0 64 64" style="enable-background:new 0 0 64 64;" xml:space="preserve">
<style type="text/css">
	.st0{fill:none;stroke:#FFFFFF;stroke-width:2;stroke-miterlimit:10;}
</style>
<path class="st0" d="M32,51.56c-1.59,0-2.88-1.29-2.88-2.88c0-1.59,1.29-2.88,2.88-2.88c1.59,0,2.88,1.29,2.88,2.88
	C34.88,50.27,33.59,51.56,32,51.56z"/>
<circle class="st0" cx="32" cy="10.48" r="7.88"/>
<path class="st0" d="M24.91,58.66c-0.83,0-1.5-0.67-1.5-1.5c0-0.83,0.67-1.5,1.5-1.5s1.5,0.67,1.5,1.5
	C26.41,57.98,25.74,58.66,24.91,58.66z"/>
<circle class="st0" cx="32" cy="24" r="2.88"/>
<circle class="st0" cx="32" cy="32.23" r="2.88"/>
<circle class="st0" cx="32" cy="40.46" r="2.88"/>
<circle class="st0" cx="32" cy="58.25" r="2.88"/>
<path class="st0" d="M39.09,58.65c-0.83,0-1.5-0.67-1.5-1.5s0.67-1.5,1.5-1.5s1.5,0.67,1.5,1.5C40.59,57.98,39.92,58.65,39.09,58.65
	z"/>
</svg>
