<?xml version="1.0" encoding="utf-8"?>
<!-- Generator: Adobe Illustrator 24.2.3, SVG Export Plug-In . SVG Version: 6.00 Build 0)  -->
<svg version="1.1" id="Layer_2" xmlns="http://www.w3.org/2000/svg" xmlns:xlink="http://www.w3.org/1999/xlink" x="0px" y="0px"
	 viewBox="0 0 256 256" style="enable-background:new 0 0 256 256;" xml:space="preserve">
<style type="text/css">
	.st0{fill:#FFFFFF;}
</style>
<path class="st0" d="M127.86,8.41C99.29,8.48,75.5,31.49,74.53,60.05c-0.43,12.66,3.55,24.38,10.51,33.74
	c2.34,3.15,3.52,7.01,3.52,10.94v102.99c0,22.15,18.13,40.7,40.27,40.27c21.46-0.41,38.73-17.93,38.73-39.49V104.29
	c0-3.91,1.33-7.67,3.64-10.83c6.47-8.85,10.3-19.76,10.3-31.56C181.5,32.31,157.47,8.33,127.86,8.41z M109.65,230.88
	c-2.42,0-4.38-1.96-4.38-4.38c0-2.42,1.96-4.38,4.38-4.38c2.42,0,4.38,1.96,4.38,4.38C114.03,228.92,112.07,230.88,109.65,230.88z
	 M128,239.49c-5.25,0-9.5-4.25-9.5-9.5s4.25-9.5,9.5-9.5s9.5,4.25,9.5,9.5S133.25,239.49,128,239.49z M128,202.07
	c-5.25,0-9.5-4.25-9.5-9.5s4.25-9.5,9.5-9.5s9.5,4.25,9.5,9.5S133.25,202.07,128,202.07z M128,174.88c-5.25,0-9.5-4.25-9.5-9.5
	s4.25-9.5,9.5-9.5s9.5,4.25,9.5,9.5S133.25,174.88,128,174.88z M128,147.69c-5.25,0-9.5-4.25-9.5-9.5s4.25-9.5,9.5-9.5
	s9.5,4.25,9.5,9.5S133.25,147.69,128,147.69z M128,120.51c-5.25,0-9.5-4.25-9.5-9.5s4.25-9.5,9.5-9.5s9.5,4.25,9.5,9.5
	S133.25,120.51,128,120.51z M146.35,230.88c-2.42,0-4.38-1.96-4.38-4.38c0-2.42,1.96-4.38,4.38-4.38c2.42,0,4.38,1.96,4.38,4.38
	C150.74,228.92,148.77,230.88,146.35,230.88z M128,91.44c-19.61,0-35.5-15.89-35.5-35.5c0-19.61,15.89-35.5,35.5-35.5
	s35.5,15.89,35.5,35.5C163.5,75.54,147.61,91.44,128,91.44z"/>
</svg>
