<svg viewBox="0 0 64 64" xmlns="http://www.w3.org/2000/svg">
<style>
	.st0{fill:#fff;stroke:#fff;stroke-width:1.5}
	.st1{fill:none;stroke:#fff;stroke-width:1.5}
	.st2{fill:none;stroke:#fff;stroke-width:1}
	.st3{fill:#fff;stroke:#fff;stroke-width:1}
</style>
<circle class="st1" cx="32" cy="13.9" r="8.3"/>
<circle class="st1" cx="32" cy="27.8" r="2.4"/>
<circle class="st1" cx="32" cy="34.5" r="2.4"/>
<circle class="st1" cx="32" cy="41.3" r="2.4"/>
<circle class="st0" cx="32" cy="48.2" r="2.4"/>
<circle class="st1" cx="32" cy="56.5" r="2.4"/>
<circle class="st2" cx="26.5" cy="55.6" r="1.2"/>
<circle class="st2" cx="37.3" cy="55.6" r="1.2"/>
<path class="st1" d="M32,2.1c-7.1,0-13.1,5.8-13.4,12.9c-0.1,3,0.8,6,2.6,8.5c0.6,0.8,0.9,1.8,0.9,2.8V52c0,5.5,4.5,10,10,10c0,0,0,0,0.1,0c5.4-0.1,9.7-4.5,9.7-9.9v-26c0-1,0.3-1.9,0.9-2.7c4.3-6,3-14.3-2.9-18.7C37.6,3,34.8,2.1,32,2.1L32,2.1z"/>
</svg>