<?xml version="1.0" encoding="utf-8"?>
<svg version="1.1" xmlns="http://www.w3.org/2000/svg" xmlns:xlink="http://www.w3.org/1999/xlink" x="0px" y="0px" viewBox="0 0 64 64" style="enable-background:new 0 0 64 64;" xml:space="preserve">
<style type="text/css">
	.st0{fill:#FFFFFF;}
</style>
<g>
	<path class="st0" d="M26.41,28.46c-0.9,0.9,2.71,4.5,2.7,4.51l1.81-1.81C30.92,31.17,27.31,27.57,26.41,28.46z"/>
	<path class="st0" d="M51.09,46.56L48,43.48l-2.16,2.16L32.39,32.19l-2.32,2.32L48.16,52.6l2.93-2.93C51.94,48.81,51.94,47.42,51.09,46.56z"/>
</g>
<path class="st0" d="M16.41,42.36c-0.69,0-1.27-0.58-1.27-1.27V18.35c0-0.69,0.58-1.27,1.27-1.27h31.17c0.69,0,1.27,0.58,1.27,1.27v22.74l2.11,1.97V18.35c0-1.86-1.52-3.38-3.38-3.38H16.41c-1.86,0-3.38,1.52-3.38,3.38v22.74c0,1.86,1.52,3.38,3.38,3.38h20.15l-2.11-2.11H16.41z"/>
</svg>