<svg viewBox="0 0 64 64" xmlns="http://www.w3.org/2000/svg">
<style>
.st0{fill:#fff}
.st1{fill:none;stroke:#fff;stroke-width:2;stroke-linecap:round}
</style>
<g>
<path class="st0" d="M26.41 28.46c-.9.9 2.71 4.5 2.7 4.51l1.81-1.81c0 .01-3.61-3.59-4.51-2.7z"/>
<path class="st0" d="M51.09 46.56 48 43.48l-2.16 2.16-13.45-13.45-2.32 2.32L48.16 52.6l2.93-2.93c.85-.86.85-2.25 0-3.11z"/>
</g>
<path class="st1" d="M34.5 43.56H16.38c-1.25 0-2.25-1-2.25-2.25v-23c0-1.25 1-2.25 2.25-2.25h31.5c1.24 0 2.25 1 2.25 2.25V41"/>
</svg>