<?xml version="1.0" encoding="utf-8"?>
<svg version="1.1" id="Layer_1" xmlns="http://www.w3.org/2000/svg" xmlns:xlink="http://www.w3.org/1999/xlink" x="0px" y="0px" viewBox="0 0 64 64" style="enable-background:new 0 0 64 64;" xml:space="preserve">
<style type="text/css">
	.st0{fill:#FFFFFF;}
</style>
<path class="st0" d="M16.4,42.4c-0.7,0-1.3-0.6-1.3-1.3V18.4c0-0.7,0.6-1.3,1.3-1.3h31.2c0.7,0,1.3,0.6,1.3,1.3v9.7l2.1,2V18.4c0-1.9-1.5-3.4-3.4-3.4H16.4c-1.9,0-3.4,1.5-3.4,3.4v22.7c0,1.9,1.5,3.4,3.4,3.4h15.1l-2.1-2.1H16.4z"/>
<path class="st0" d="M35.1,57.2"/>
<path class="st0" d="M52.1,47.4c-5.2,5.2-11.9,3-17.7-2.9c-2.8-2.8,1.3-2.8,1.3-2.8l2.5,1.4c0,0-9.5-9.5-10-10c-0.4-0.4-1.5-1.7-0.2-3c1.2-1.2,2.7-0.4,3.2,0s7.8,7.8,7.8,7.8s-2.1-2.7-0.8-4s4.2,0.8,4.2,0.8s-2.2-1.9-0.5-3.5c1.7-1.6,3.5,0.5,3.5,0.5s-0.8-1.3,0-2.1c0.8-0.8,2.1,0,2.8,0.7s1.5,1.5,3.7,3.7C53.9,36.4,57.3,42.1,52.1,47.4z"/>
</svg>