<svg viewBox="0 0 64 64" xmlns="http://www.w3.org/2000/svg">
<style>
.st0{fill:#fff}
.st1{fill:none;stroke:#fff;stroke-width:2;stroke-linecap:round}
</style>
<path class="st0" d="M52.1 47.4c-5.2 5.2-11.9 3-17.7-2.9-2.8-2.8 1.3-2.8 1.3-2.8l2.5 1.4-10-10c-.4-.4-1.5-1.7-.2-3 1.2-1.2 2.7-.4 3.2 0s7.8 7.8 7.8 7.8-2.1-2.7-.8-4 4.2.8 4.2.8-2.2-1.9-.5-3.5c1.7-1.6 3.5.5 3.5.5s-.8-1.3 0-2.1 2.1 0 2.8.7l3.7 3.7c2 2.4 5.4 8.1.2 13.4z"/>
<path class="st1" d="M29.5 43.56H16.38c-1.25 0-2.25-1-2.25-2.25v-23c0-1.25 1-2.25 2.25-2.25h31.5c1.24 0 2.25 1 2.25 2.25v9.19"/>
</svg>