<?xml version="1.0" encoding="utf-8"?>
<svg version="1.1" xmlns="http://www.w3.org/2000/svg" xmlns:xlink="http://www.w3.org/1999/xlink" x="0px" y="0px" viewBox="0 0 64 64" style="enable-background:new 0 0 64 64;" xml:space="preserve">
<style type="text/css">
	.st0{fill:#FFFFFF;}
</style>
<path class="st0" d="M32,24c-4.4,0-8,3.6-8,8s3.6,8,8,8s8-3.6,8-8S36.4,24,32,24z M28.1,28.2c-1.7,1.7-2.4,3.1-2.4,3.1s-0.6-1.9,1.4-3.9s4-1.5,4-1.5S29.7,26.6,28.1,28.2z"/>
<path class="st0" d="M24.2,49l7.3,9.4c0.3,0.3,0.8,0.3,1.1,0l7.2-9.4c0.2-0.2,0.2-0.5,0.1-0.7c-0.1-0.2-0.3-0.4-0.6-0.4H36v-6c0-0.4-0.3-0.7-0.7-0.7h-6.7c-0.4,0-0.7,0.3-0.7,0.7v6h-3.2c-0.3,0-0.5,0.1-0.6,0.4C24,48.5,24,48.8,24.2,49z"/>
<path class="st0" d="M50.7,26.9l-9.4-8c-0.7-0.6-1.5-0.9-2.3-0.9H25c-0.9,0-1.7,0.3-2.3,0.8l-9.4,7.9c-0.8,0.7-1.3,1.7-1.3,2.8v4.7c0,1.1,0.5,2.1,1.3,2.8l9.4,8c0.7,0.6,1.5,0.9,2.3,0.9h1V40c-2.4-1.8-4-4.7-4-8c0-5.5,4.5-10,10-10s10,4.5,10,10c0,3.3-1.6,6.2-4,8v5.9h1c0.9,0,1.7-0.3,2.3-0.8l9.4-7.9c0.8-0.7,1.3-1.7,1.3-2.8v-4.7C52,28.6,51.5,27.6,50.7,26.9z"/>
</svg>