<svg viewBox="0 0 64 64" xmlns="http://www.w3.org/2000/svg">
<style>
.st0{fill:#fff}
.st1{fill:#fff;stroke:#fff;stroke-width:1.25;stroke-linejoin:round}
</style>
<path class="st0" d="M32 24c-4.4 0-8 3.6-8 8s3.6 8 8 8 8-3.6 8-8-3.6-8-8-8zm-3.9 4.2c-1.7 1.7-2.4 3.1-2.4 3.1s-.6-1.9 1.4-3.9 4-1.5 4-1.5-1.4.7-3 2.3z"/>
<path class="st0" d="m13.3 37.1 9.4 8c.7.6 1.5.9 2.3.9h14c.9 0 1.7-.3 2.3-.8l9.4-7.9c.8-.7 1.3-1.7 1.3-2.8v-4.7c0-1.1-.5-2.1-1.3-2.8l-9.4-8c-.7-.6-1.5-.9-2.3-.9h-1V24a9.99 9.99 0 1 1-12 0v-5.9h-1c-.9 0-1.7.3-2.3.8l-9.4 7.9c-.8.7-1.3 1.7-1.3 2.8v4.7c0 1.1.5 2.1 1.3 2.8z"/>
<path class="st1" d="M34.92 15.25v5.84h-5.84v-5.84zm-9.34 0h12.84L32 7.09Z" id="path7"/>
</svg>