<?xml version="1.0" encoding="utf-8"?>
<svg version="1.1" xmlns="http://www.w3.org/2000/svg" xmlns:xlink="http://www.w3.org/1999/xlink" x="0px" y="0px" viewBox="0 0 64 64" style="enable-background:new 0 0 64 64;" xml:space="preserve">
<style type="text/css">
	.st0{fill:#FFFFFF;}
</style>
<path class="st0" d="M32,24c-4.4,0-8,3.6-8,8s3.6,8,8,8s8-3.6,8-8S36.4,24,32,24z M28.1,28.2c-1.7,1.7-2.4,3.1-2.4,3.1s-0.6-1.9,1.4-3.9s4-1.5,4-1.5S29.7,26.6,28.1,28.2z"/>
<path class="st0" d="M39.8,15l-7.3-9.4c-0.3-0.3-0.8-0.3-1.1,0L24.2,15c-0.2,0.2-0.2,0.5-0.1,0.7c0.1,0.2,0.3,0.4,0.6,0.4H28v6c0,0.4,0.3,0.7,0.7,0.7h6.7c0.4,0,0.7-0.3,0.7-0.7v-6h3.2c0.3,0,0.5-0.1,0.6-0.4C40,15.5,40,15.2,39.8,15z"/>
<path class="st0" d="M13.3,37.1l9.4,8c0.7,0.6,1.5,0.9,2.3,0.9h14c0.9,0,1.7-0.3,2.3-0.8l9.4-7.9c0.8-0.7,1.3-1.7,1.3-2.8v-4.7c0-1.1-0.5-2.1-1.3-2.8l-9.4-8c-0.7-0.6-1.5-0.9-2.3-0.9h-1V24c2.4,1.8,4,4.7,4,8c0,5.5-4.5,10-10,10s-10-4.5-10-10c0-3.3,1.6-6.2,4-8v-5.9h-1c-0.9,0-1.7,0.3-2.3,0.8l-9.4,7.9c-0.8,0.7-1.3,1.7-1.3,2.8v4.7C12,35.4,12.5,36.4,13.3,37.1z"/>
</svg>