<svg viewBox="0 0 64 64" xmlns="http://www.w3.org/2000/svg">
<style>
.st0{fill:#fff}
.st1{fill:#fff;stroke:#fff;stroke-width:1.25;stroke-linejoin:round}
</style>
<path class="st0" d="M32 24c-4.4 0-8 3.6-8 8s3.6 8 8 8 8-3.6 8-8-3.6-8-8-8zm-3.9 4.2c-1.7 1.7-2.4 3.1-2.4 3.1s-.6-1.9 1.4-3.9 4-1.5 4-1.5-1.4.7-3 2.3z"/>
<path class="st0" d="m13.3 37.1 9.4 8c.7.6 1.5.9 2.3.9h14c.9 0 1.7-.3 2.3-.8l4.6-3.9V38H40a9.99 9.99 0 0 1-18-6v-.1c0-5.5 4.5-10 10-10 3.3 0 6.1 1.6 8 4h5.9v-3.3l-4.6-3.9c-.6-.5-1.4-.8-2.3-.8H25c-.8 0-1.6.3-2.3.9l-9.4 8c-.8.7-1.3 1.7-1.3 2.8v4.7c0 1.1.5 2.1 1.3 2.8z"/>
<path class="st1" d="M48.76 34.92h-5.84v-5.84h5.84zm0-9.34v12.84L56.9 32z" id="path145"/>
</svg>