<?xml version="1.0" encoding="utf-8"?>
<svg version="1.1" xmlns="http://www.w3.org/2000/svg" xmlns:xlink="http://www.w3.org/1999/xlink" x="0px" y="0px" viewBox="0 0 64 64" style="enable-background:new 0 0 64 64;" xml:space="preserve">
<style type="text/css">
	.st0{fill:#FFFFFF;}
</style>
<path class="st0" d="M32,24c-4.4,0-8,3.6-8,8s3.6,8,8,8s8-3.6,8-8S36.4,24,32,24z M28.1,28.2c-1.7,1.7-2.4,3.1-2.4,3.1s-0.6-1.9,1.4-3.9s4-1.5,4-1.5S29.7,26.6,28.1,28.2z"/>
<path class="st0" d="M15,24.2l-9.4,7.3c-0.3,0.3-0.3,0.8,0,1.1l9.4,7.2c0.2,0.2,0.5,0.2,0.7,0.1c0.2-0.1,0.4-0.3,0.4-0.6V36h6c0.4,0,0.7-0.3,0.7-0.7v-6.7c0-0.4-0.3-0.7-0.7-0.7h-6v-3.2c0-0.3-0.1-0.5-0.4-0.6C15.5,24,15.2,24,15,24.2z"/>
<path class="st0" d="M50.7,26.9l-9.4-8C40.6,18.3,39.8,18,39,18H25c-0.9,0-1.7,0.3-2.3,0.8l-4.6,3.9V26H24c1.8-2.4,4.7-4,8-4c5.5,0,10,4.5,10,10c0,0,0,0,0,0c0,0,0,0,0,0.1c0,5.5-4.5,10-10,10c-3.3,0-6.1-1.6-8-4h-5.9v3.3l4.6,3.9c0.6,0.5,1.4,0.8,2.3,0.8h14c0.8,0,1.6-0.3,2.3-0.9l9.4-8c0.8-0.7,1.3-1.7,1.3-2.8v-4.7C52,28.6,51.5,27.6,50.7,26.9z"/>
</svg>