<svg viewBox="0 0 64 64" xmlns="http://www.w3.org/2000/svg">
<style>
	.st0{fill:#fff}
</style>
<path class="st0" d="M32,24c-4.4,0-8,3.6-8,8s3.6,8,8,8s8-3.6,8-8S36.4,24,32,24z M28.1,28.2c-1.7,1.7-2.4,3.1-2.4,3.1s-0.6-1.9,1.4-3.9s4-1.5,4-1.5S29.7,26.6,28.1,28.2z"/>
<path class="st0" d="M43.1,42.1h7.4c2.3,0,4.1-1.8,4.1-4.1V26.1c0-2.3-1.8-4.1-4.1-4.1h-7.4c0,0,3.9,3.7,3.9,10.1S43.1,42.1,43.1,42.1z"/>
<path class="st0" d="M20.9,42.1c0,0-3.9-4.3-3.9-10.1s3.9-10.1,3.9-10.1h-7.4c-2.3,0-4.1,1.8-4.1,4.1v11.9c0,2.3,1.8,4.1,4.1,4.1H20.9z"/>
</svg>