<?xml version="1.0" encoding="utf-8"?>
<svg version="1.1" xmlns="http://www.w3.org/2000/svg" xmlns:xlink="http://www.w3.org/1999/xlink" x="0px" y="0px" viewBox="0 0 256 256" style="enable-background:new 0 0 256 256;" xml:space="preserve">
<style type="text/css">
	.st0{fill:none;stroke:#FFFFFF;stroke-width:8;stroke-miterlimit:10;}
	.st1{fill:#FFFFFF;}
</style>
<path class="st0" d="M194.6,83h-59.1v90h59.1c23.9,0,43.4-19.6,43.4-43.4v-3.1C238,102.6,218.4,83,194.6,83z"/>
<polygon class="st1" points="204,133 192,133 192,145.1 179.4,145.1 179.4,133 167.4,133 167.4,120.4 179.4,120.4 179.4,108.4 192,108.4 192,120.4 204,120.4 "/>
<path class="st1" d="M61.4,81C36.4,81,16,101.4,16,126.4v3.1c0,25.1,20.4,45.4,45.4,45.4h61.1V81H61.4z M88.6,133H52v-12.6h36.7C88.6,120.4,88.6,133,88.6,133z"/>
</svg>