<?xml version="1.0" encoding="utf-8"?>
<svg version="1.1" xmlns="http://www.w3.org/2000/svg" xmlns:xlink="http://www.w3.org/1999/xlink" x="0px" y="0px" viewBox="0 0 64 64" style="enable-background:new 0 0 64 64;" xml:space="preserve">
<style type="text/css">
	.st0{fill:none;stroke:#FFFFFF;stroke-width:4;stroke-miterlimit:5;}
	.st1{fill:#FFFFFF;}
</style>
<g>
	<path class="st0" d="M13.2,16.9c10.4-10.4,27.2-10.4,37.6,0"/>
	<path class="st1" d="M55.6,22.4l-3.8-12.3l-8.2,8.2L55.6,22.4z"/>
	<g>
		<path class="st1" d="M42.1,26.5c0.2,0.2,0.3,0.4,0.5,0.6l2.8-2.8c-0.1-0.2-0.3-0.4-0.5-0.6c-0.4-0.2-0.5-0.4-0.8-0.6l-2.7,2.7C41.7,26,41.9,26.2,42.1,26.5z"/>
		<path class="st1" d="M17.5,36.7h-3.8c0.1,4.5,1.9,9.1,5.4,12.6c3.6,3.6,8.2,5.2,12.8,5.4v-4c-3.6,0.1-7.4-1.4-10.1-4.2C19.1,43.9,17.6,40.4,17.5,36.7z"/>
		<path class="st1" d="M33.2,50.9v4c4.2-0.4,8.3-2.1,11.5-5.3c6.6-6.6,7.1-16.9,1.6-24.1l-2.8,2.8c4.1,5.7,3.6,13.4-1.4,18.4C39.7,49.2,36.7,50.5,33.2,50.9z"/>
		<path class="st1" d="M19,23.8c-3.3,3.2-4.9,7.3-5.3,11.5h4c0.3-3.3,1.7-6.4,4.1-8.8c4.9-5.1,12.8-5.6,18.4-1.6L43,22C35.8,16.6,25.5,17.1,19,23.8z"/>
		<path class="st1" d="M24,26.4L24,26.4c0,0-0.5,0.4-1.3,1.1c-0.7,0.7-1.7,2-1.7,2.4l5.4,5.4c0.8,0.8,0.8,2.3,0,3.1L21,43.7c0.5,0.6,1.1,1.4,1.7,2c0.4,0.5,0.9,0.9,1.4,1.3l5.4-5.4c0.8-0.8,2.3-0.8,3.1,0l6.1,6.1c0.9-0.5,1.7-1.1,2.4-1.8c0.4-0.5,0.7-0.8,1.1-1.3c-1.9-2.2-5.2-5.9-9-9.7C29.4,31.2,26,28.2,24,26.4z M29.7,35.6c0.8-0.8,1.9-0.8,2.7,0c0.8,0.8,0.8,1.9,0,2.7s-2,0.7-2.7,0C28.9,37.5,28.9,36.4,29.7,35.6z"/>
	</g>
</g>
</svg>