<?xml version="1.0" encoding="utf-8"?>
<svg version="1.1" xmlns="http://www.w3.org/2000/svg" xmlns:xlink="http://www.w3.org/1999/xlink" x="0px" y="0px" viewBox="0 0 64 64" style="enable-background:new 0 0 64 64;" xml:space="preserve">
<style type="text/css">
	.st0{fill:none;stroke:#FFFFFF;stroke-width:4;stroke-miterlimit:5;}
	.st1{fill:#FFFFFF;}
</style>
<g>
	<path class="st0" d="M13.2,17C23.6,6.6,40.4,6.6,50.8,17"/>
	<path class="st1" d="M20.4,18.4l-8.2-8.2L8.4,22.5L20.4,18.4z"/>
	<g>
		<path class="st1" d="M22,26.5c0.2-0.2,0.4-0.3,0.6-0.5l-2.8-2.8c-0.2,0.1-0.4,0.3-0.6,0.5c-0.2,0.4-0.4,0.5-0.6,0.8l2.7,2.7C21.5,26.9,21.7,26.7,22,26.5z"/>
		<path class="st1" d="M32.2,51v3.8c4.5-0.1,9.1-1.9,12.6-5.4c3.6-3.6,5.2-8.2,5.4-12.8h-4c0.1,3.6-1.4,7.4-4.2,10.1C39.4,49.5,35.9,51,32.2,51z"/>
		<path class="st1" d="M46.4,35.3h4c-0.4-4.2-2.1-8.3-5.3-11.5c-6.6-6.6-16.9-7.1-24.1-1.6l2.8,2.8c5.7-4.1,13.4-3.6,18.4,1.4C44.7,28.9,46,31.9,46.4,35.3z"/>
		<path class="st1" d="M19.3,49.5c3.2,3.3,7.3,4.9,11.5,5.3v-4c-3.3-0.3-6.4-1.7-8.8-4.1c-5.1-4.9-5.6-12.8-1.6-18.4l-2.9-2.8C12.1,32.8,12.6,43,19.3,49.5z"/>
		<path class="st1" d="M21.9,44.5L21.9,44.5c0,0,0.4,0.5,1.1,1.3c0.7,0.7,2,1.7,2.3,1.8l5.4-5.4c0.8-0.8,2.3-0.8,3.1,0l5.4,5.4c0.6-0.5,1.4-1.1,2-1.7c0.5-0.4,0.9-0.9,1.3-1.4l-5.4-5.4c-0.8-0.8-0.8-2.3,0-3.1l6.1-6.1c-0.5-0.9-1.1-1.7-1.8-2.4c-0.5-0.4-0.8-0.7-1.3-1.1c-2.2,1.9-5.9,5.2-9.7,9C26.7,39.1,23.7,42.5,21.9,44.5z M31.1,38.8c-0.8-0.8-0.8-1.9,0-2.7s1.9-0.8,2.7,0s0.7,2,0,2.7C33,39.6,31.9,39.6,31.1,38.8z"/>
	</g>
</g>
</svg>