<?xml version="1.0" encoding="utf-8"?>
<svg version="1.1" xmlns="http://www.w3.org/2000/svg" xmlns:xlink="http://www.w3.org/1999/xlink" x="0px" y="0px" viewBox="0 0 64 64" style="enable-background:new 0 0 64 64;" xml:space="preserve">
<style type="text/css">
	.st0{fill:#FFFFFF;}
</style>
<g>
	<path class="st0" d="M32.1,17.8c0.3,0,0.5,0.1,0.8,0.1v-4c-0.2-0.1-0.5-0.1-0.8-0.1c-0.4,0.1-0.6,0.1-1,0.1v3.8C31.4,17.8,31.7,17.8,32.1,17.8z"/>
	<path class="st0" d="M21.9,42.4l-2.7,2.7c3.3,3.1,7.8,5.1,12.7,5.1c5.1,0,9.5-2.1,12.9-5.2L42,42.2c-2.5,2.6-6.2,4.2-10.1,4.2C28.1,46.4,24.6,45,21.9,42.4z"/>
	<path class="st0" d="M43,41.4l2.8,2.8c2.7-3.3,4.4-7.4,4.4-11.9c0-9.3-6.9-17-15.9-18.2v4c6.9,1.1,12,6.9,12,14C46.4,35.6,45.2,38.6,43,41.4z"/>
	<path class="st0" d="M13.8,32.3c-0.1,4.6,1.7,8.6,4.4,11.9l2.8-2.8c-2.1-2.5-3.3-5.7-3.3-9.1c-0.1-7.1,5.1-13,11.9-14.1l-0.1-4C20.6,15.3,13.7,22.9,13.8,32.3z"/>
	<path class="st0" d="M19.2,30.6L19.2,30.6c0,0-0.1,0.6-0.1,1.7c0,1,0.2,2.6,0.5,2.9h7.6c1.1,0,2.2,1.1,2.2,2.2L29.3,45c0.8,0.1,1.8,0.2,2.6,0.2c0.6,0.1,1.3,0,1.9-0.1v-7.6c0-1.1,1.1-2.2,2.2-2.2h8.6c0.3-1,0.4-2.45,0.4-3s-0.1-1.7-0.1-1.7c-2.9-0.2-7.8-0.5-13.2-0.5C26.4,30.1,21.9,30.4,19.2,30.6z M29.7,33c0-1.1,0.8-1.9,1.9-1.9s1.9,0.8,1.9,1.9c0,1.1-0.9,1.9-1.9,1.9C30.5,35,29.7,34.2,29.7,33z"/>
</g>
<g>
	<path class="st0" d="M19.33,29.5l0.09-0.65c0.27-1.86,2.44-6.4,5.41-6.78c0.84,0,1.79,0,1.79,1.15c0,0.33-0.2,0.66-0.48,1.12c-0.54,0.89-1.36,2.24-1.1,4.22l0.08,0.57h-0.57c-1.97,0-4.56,0.3-4.58,0.31L19.33,29.5z M24.9,23.07c-2.01,0.26-3.79,3.42-4.34,5.29c0.81-0.08,2.18-0.2,3.45-0.23c-0.1-2.02,0.76-3.44,1.29-4.31c0.14-0.23,0.31-0.52,0.33-0.61c0-0.07-0.02-0.11-0.02-0.11C25.55,23.07,25.19,23.07,24.9,23.07z"/>
</g>
<g>
	<path class="st0" d="M44.79,29.5l-0.65-0.08c-0.03,0-2.62-0.31-4.58-0.31h-0.57l0.08-0.57c0.26-1.91-0.5-3.16-1.05-4.08c-0.29-0.49-0.53-0.87-0.53-1.26c0-0.25,0.03-0.62,0.3-0.88c0.3-0.29,0.71-0.28,1.13-0.27l0.3,0c3.03,0.38,5.2,4.93,5.48,6.79L44.79,29.5z"/>
</g>
<g>
	<path class="st0" d="M38.8,42.22c-0.8,0-1.65-0.06-1.65-1.15c0-0.39,0.25-0.67,0.55-1c0.54-0.6,1.28-1.43,1.03-3.34l-0.08-0.57h0.57c2.03,0,4.57,0.07,4.57,0.07l0.76,0.02l-0.33,0.69c-0.09,0.2-2.33,4.88-5.29,5.26C38.9,42.22,38.85,42.22,38.8,42.22z"/>
</g>
<g>
	<path class="st0" d="M25.83,42.23c-0.08,0-0.16,0-0.24,0l-0.3,0c-3.04-0.38-5.2-5.14-5.29-5.35l-0.31-0.7h5.83l-0.08,0.57c-0.25,1.84,0.43,2.61,0.98,3.22c0.31,0.34,0.6,0.67,0.6,1.11c0,0.25-0.03,0.62-0.3,0.88C26.48,42.19,26.17,42.23,25.83,42.23zM21.27,37.17c0.79,1.47,2.39,3.84,4.09,4.05l0.26,0c0.14,0,0.31,0.01,0.4,0c0-0.02,0-0.07,0-0.15c-0.01-0.08-0.21-0.3-0.34-0.45c-0.52-0.59-1.37-1.54-1.28-3.45H21.27z"/>
</g>
</svg>