<?xml version="1.0" encoding="utf-8"?>
<svg version="1.1" xmlns="http://www.w3.org/2000/svg" xmlns:xlink="http://www.w3.org/1999/xlink" x="0px" y="0px" viewBox="0 0 64 64" style="enable-background:new 0 0 64 64;" xml:space="preserve">
<style type="text/css">
	.st0{fill:#FFFFFF;}
</style>
<g>
	<path class="st0" d="M32.1,17.8c0.3,0,0.5,0.1,0.8,0.1v-4c-0.2-0.1-0.5-0.1-0.8-0.1c-0.4,0.1-0.6,0.1-1,0.1v3.8C31.4,17.8,31.7,17.8,32.1,17.8z"/>
	<path class="st0" d="M21.9,42.4l-2.7,2.7c3.3,3.1,7.8,5.1,12.7,5.1c5.1,0,9.5-2.1,12.9-5.2L42,42.2c-2.5,2.6-6.2,4.2-10.1,4.2C28.1,46.4,24.6,45,21.9,42.4z"/>
	<path class="st0" d="M43,41.4l2.8,2.8c2.7-3.3,4.4-7.4,4.4-11.9c0-9.3-6.9-17-15.9-18.2v4c6.9,1.1,12,6.9,12,14C46.4,35.6,45.2,38.6,43,41.4z"/>
	<path class="st0" d="M13.8,32.3c-0.1,4.6,1.7,8.6,4.4,11.9l2.8-2.8c-2.1-2.5-3.3-5.7-3.3-9.1c-0.1-7.1,5.1-13,11.9-14.1l-0.1-4C20.6,15.3,13.7,22.9,13.8,32.3z"/>
	<path class="st0" d="M19.2,30.6L19.2,30.6c0,0-0.1,0.6-0.1,1.7c0,1,0.2,2.6,0.5,2.9h7.6c1.1,0,2.2,1.1,2.2,2.2L29.3,45c0.8,0.1,1.8,0.2,2.6,0.2c0.6,0.1,1.3,0,1.9-0.1v-7.6c0-1.1,1.1-2.2,2.2-2.2h8.6c0.3-1,0.4-2,0.4-3c-0.1-0.6-0.1-1.1-0.1-1.7c-2.9-0.2-7.8-0.5-13.2-0.5C26.4,30.1,21.9,30.4,19.2,30.6z M29.7,33c0-1.1,0.8-1.9,1.9-1.9c1.1,0,1.9,0.8,1.9,1.9c0,1.1-0.9,1.9-1.9,1.9C30.5,35,29.7,34.2,29.7,33z"/>
</g>
</svg>