<svg viewBox="0 0 64 64" xmlns="http://www.w3.org/2000/svg">
<style>
.st0{fill:none;stroke:#fff;stroke-width:4}
.st1{fill:#fff}
.st2{fill:#fff;stroke:#fff;stroke-width:1;stroke-linejoin:round}
</style>
<g>
	<path class="st0" d="M13.2 17a26.56 26.56 0 0 1 37.6 0"/>
	<path class="st2" d="m20.4 18.4-8.2-8.2-3.8 12.3 12-4.1z"/>
	<g transform="rotate(-45 37.66 34.2)" class="st1">
		<path d="M32.92 17.8h-1.8v-3.9h1.8z"/>
		<path d="M42.96 41.2a14.3 14.3 0 0 0-8.6-23.3V14c14.3 2 20.8 19 11.4 29.9z"/>
		<path d="M21.96 42.3c2.6 2.5 6.1 4.1 10 4.1 3.9 0 7.4-1.6 10-4.1l2.7 2.7c-7 6.8-18.3 6.8-25.4 0z"/>
		<path d="M29.56 17.9a14.3 14.3 0 0 0-8.6 23.3l-2.7 2.7c-9.4-11-3-28 11.4-29.9v3.9z"/>
		<path d="M31.96 29.72c-4.27 0-8.54.16-12.8.46l-.1 1.73c0 1.06.1 2.03.38 2.99h8.1c1.24 0 2.2.96 2.2 2.21v7.42s1.48.19 2.22.19c.74 0 2.22-.2 2.22-.2v-7.4c0-1.26.96-2.22 2.2-2.22h8.1c.19-.96.38-1.93.38-2.99l-.1-1.73c-4.26-.3-8.53-.46-12.8-.46zm0 1.18c.95 0 1.9.63 1.9 1.9 0 2.53-3.8 2.53-3.8 0 0-1.27.95-1.9 1.9-1.9z"/>
	</g>
</g>
</svg>