<?xml version="1.0" encoding="utf-8"?>
<svg version="1.1" xmlns="http://www.w3.org/2000/svg" xmlns:xlink="http://www.w3.org/1999/xlink" x="0px" y="0px" viewBox="0 0 64 64" style="enable-background:new 0 0 64 64;" xml:space="preserve">
<style type="text/css">
	.st0{fill:none;stroke:#FFFFFF;stroke-width:2;stroke-miterlimit:5;}
</style>
<g>
	<path class="st0" d="M47.94,16.25c1.4,2.82,1.09,5.82-0.7,6.71c-1.79,0.89-4.38-0.67-5.78-3.48c-1.4-2.82-1.09-5.82,0.7-6.71C43.95,11.88,46.54,13.44,47.94,16.25z"/>
	<path class="st0" d="M33.18,6.9c1.5,3.01,1.05,6.28-1.01,7.3c-2.06,1.02-4.94-0.59-6.44-3.6c-1.5-3.01-1.05-6.28,1.01-7.3C28.8,2.28,31.68,3.9,33.18,6.9z"/>
	<path class="st0" d="M28.9,22.49c1.66,4.54,0.19,9.25-3.3,10.53c-3.49,1.28-7.67-1.36-9.33-5.9c-1.67-4.54-0.19-9.25,3.3-10.53C23.06,15.31,27.24,17.95,28.9,22.49z"/>
	<path class="st0" d="M44.17,50.28c1.64,4.49,0.2,9.15-3.24,10.41c-3.43,1.26-7.55-1.36-9.2-5.85c-1.65-4.49-0.2-9.15,3.23-10.41C38.4,43.17,42.52,45.79,44.17,50.28z M28.3,41.21c1.65,4.49,0.2,9.15-3.23,10.41c-3.44,1.26-7.56-1.36-9.2-5.85c-1.65-4.49-0.2-9.15,3.23-10.41C22.53,34.1,26.65,36.72,28.3,41.21z M44.72,31.52c1.65,4.49,0.2,9.15-3.23,10.4c-3.44,1.26-7.56-1.36-9.2-5.85c-1.65-4.49-0.2-9.15,3.23-10.41C38.95,24.41,43.08,27.03,44.72,31.52z"/>
</g>
</svg>